<svg width="422" height="90" viewBox="0 0 422 90" fill="none" xmlns="http://www.w3.org/2000/svg">
<g filter="url(#filter0_d_202_393)">
<path d="M131.014 51H117.35V12.4545H131.127C135.004 12.4545 138.342 13.2262 141.14 14.7695C143.938 16.3003 146.09 18.5024 147.596 21.3757C149.114 24.2491 149.873 27.687 149.873 31.6896C149.873 35.7048 149.114 39.1553 147.596 42.0412C146.09 44.9271 143.925 47.1417 141.102 48.685C138.292 50.2283 134.929 51 131.014 51ZM125.5 44.0174H130.675C133.085 44.0174 135.111 43.5908 136.755 42.7376C138.411 41.8718 139.653 40.5355 140.481 38.7287C141.322 36.9093 141.742 34.563 141.742 31.6896C141.742 28.8414 141.322 26.5138 140.481 24.707C139.653 22.9002 138.417 21.5702 136.773 20.717C135.13 19.8638 133.103 19.4371 130.694 19.4371H125.5V44.0174ZM201.401 31.7273C201.401 35.9306 200.604 39.5066 199.011 42.4553C197.43 45.4039 195.271 47.6561 192.536 49.212C189.813 50.7553 186.752 51.527 183.352 51.527C179.926 51.527 176.852 50.7491 174.129 49.1932C171.406 47.6373 169.255 45.3851 167.674 42.4364C166.093 39.4878 165.302 35.9181 165.302 31.7273C165.302 27.5239 166.093 23.9479 167.674 20.9993C169.255 18.0507 171.406 15.8047 174.129 14.2614C176.852 12.7055 179.926 11.9276 183.352 11.9276C186.752 11.9276 189.813 12.7055 192.536 14.2614C195.271 15.8047 197.43 18.0507 199.011 20.9993C200.604 23.9479 201.401 27.5239 201.401 31.7273ZM193.138 31.7273C193.138 29.0045 192.731 26.7083 191.915 24.8388C191.112 22.9692 189.977 21.5514 188.508 20.5852C187.04 19.6191 185.321 19.136 183.352 19.136C181.382 19.136 179.663 19.6191 178.195 20.5852C176.727 21.5514 175.585 22.9692 174.769 24.8388C173.966 26.7083 173.565 29.0045 173.565 31.7273C173.565 34.45 173.966 36.7462 174.769 38.6158C175.585 40.4853 176.727 41.9032 178.195 42.8693C179.663 43.8355 181.382 44.3185 183.352 44.3185C185.321 44.3185 187.04 43.8355 188.508 42.8693C189.977 41.9032 191.112 40.4853 191.915 38.6158C192.731 36.7462 193.138 34.45 193.138 31.7273ZM217.508 12.4545H227.558L238.173 38.3523H238.625L249.24 12.4545H259.29V51H251.386V25.9116H251.066L241.09 50.8118H235.708L225.733 25.8175H225.413V51H217.508V12.4545ZM312.127 9.289V15.225H335.5V9.289H312.127ZM309.689 21.956V27.892H338.415V21.956H309.689ZM320.077 24.871V48.191C320.077 48.827 319.865 48.986 319.176 49.039C318.487 49.039 316.208 49.039 314.141 48.933C314.936 50.841 315.731 53.597 315.943 55.505C319.547 55.505 322.144 55.346 324.105 54.286C326.066 53.226 326.543 51.424 326.543 48.297V24.871H320.077ZM328.292 34.305C330.571 39.817 332.691 46.866 333.274 51.265L338.998 49.145C338.309 44.746 335.977 37.909 333.539 32.556L328.292 34.305ZM311.968 32.768C310.749 38.227 308.523 44.004 305.82 47.714C307.145 48.403 309.636 50.046 310.802 50.947C313.505 46.813 316.155 40.294 317.692 34.093L311.968 32.768ZM289.125 16.444V22.327H309.053V16.444H289.125ZM296.545 6.003V55.77H302.852V6.003H296.545ZM295.697 20.472C294.531 26.726 291.563 34.782 288.224 39.022C289.337 40.718 290.874 43.527 291.404 45.223C295.114 39.976 298.135 29.906 299.566 21.744L295.697 20.472ZM302.587 23.175L299.778 25.984C301.421 28.263 305.025 33.987 306.456 36.902L309.848 31.92C308.788 30.542 303.859 24.5 302.587 23.175ZM373.978 26.461V32.079H399.365V26.461H373.978ZM373.978 37.008V42.573H399.365V37.008H373.978ZM374.084 47.714V53.597H401.803V47.714H374.084ZM384.26 18.087V51.371H390.302V18.087H384.26ZM388.5 6.321C387.652 9.978 386.062 14.96 384.578 18.14L389.825 19.783C391.415 16.815 393.323 12.204 395.019 8.017L388.5 6.321ZM375.144 6.003C372.547 13.688 368.042 21.32 363.06 26.037C364.385 27.203 366.611 29.906 367.565 31.178C372.918 25.56 378.112 16.55 381.292 7.752L375.144 6.003ZM376.84 16.126H375.568L370.798 21.002V55.77H376.84V21.797H400.902V16.126H376.84ZM353.096 13.476C356.435 15.649 360.622 18.988 362.477 21.267L366.717 16.285C364.703 14.006 360.357 10.985 357.071 8.971L353.096 13.476ZM351.824 47.767L357.124 52.06C360.251 47.396 363.59 41.937 366.452 36.902L361.788 32.662C358.555 38.227 354.58 44.163 351.824 47.767Z" fill="black"/>
<path d="M117.35 51H116.35V52H117.35V51ZM117.35 12.4545V11.4545H116.35V12.4545H117.35ZM141.14 14.7695L140.657 15.6452L140.66 15.6468L141.14 14.7695ZM147.596 21.3757L146.71 21.8399L146.711 21.8429L147.596 21.3757ZM147.596 42.0412L146.711 41.5756L146.709 41.5786L147.596 42.0412ZM141.102 48.685L140.623 47.8076L140.621 47.8085L141.102 48.685ZM125.5 44.0174H124.5V45.0174H125.5V44.0174ZM136.755 42.7376L137.215 43.6251L137.218 43.6238L136.755 42.7376ZM140.481 38.7287L139.573 38.3092L139.572 38.312L140.481 38.7287ZM140.481 24.707L139.572 25.1237L139.575 25.1289L140.481 24.707ZM136.773 20.717L137.234 19.8294L136.773 20.717ZM125.5 19.4371V18.4371H124.5V19.4371H125.5ZM131.014 50H117.35V52H131.014V50ZM118.35 51V12.4545H116.35V51H118.35ZM117.35 13.4545H131.127V11.4545H117.35V13.4545ZM131.127 13.4545C134.871 13.4545 138.035 14.1991 140.657 15.6452L141.623 13.8939C138.648 12.2533 135.137 11.4545 131.127 11.4545V13.4545ZM140.66 15.6468C143.282 17.0812 145.294 19.1381 146.71 21.8399L148.481 20.9116C146.886 17.8667 144.594 15.5194 141.62 13.8922L140.66 15.6468ZM146.711 21.8429C148.138 24.5426 148.873 27.8127 148.873 31.6896H150.873C150.873 27.5614 150.09 23.9555 148.48 20.9085L146.711 21.8429ZM148.873 31.6896C148.873 35.5795 148.138 38.8628 146.711 41.5756L148.481 42.5068C150.09 39.4478 150.873 35.83 150.873 31.6896H148.873ZM146.709 41.5786C145.294 44.2912 143.27 46.3604 140.623 47.8076L141.582 49.5625C144.581 47.923 146.886 45.563 148.482 42.5038L146.709 41.5786ZM140.621 47.8085C137.987 49.2547 134.798 50 131.014 50V52C135.06 52 138.596 51.2019 141.584 49.5616L140.621 47.8085ZM125.5 45.0174H130.675V43.0174H125.5V45.0174ZM130.675 45.0174C133.198 45.0174 135.393 44.5711 137.215 43.6251L136.294 41.85C134.829 42.6105 132.971 43.0174 130.675 43.0174V45.0174ZM137.218 43.6238C139.084 42.6485 140.476 41.1401 141.39 39.1453L139.572 38.312C138.83 39.9309 137.738 41.0951 136.291 41.8513L137.218 43.6238ZM141.389 39.1481C142.311 37.1531 142.742 34.6496 142.742 31.6896H140.742C140.742 34.4763 140.333 36.6656 139.573 38.3092L141.389 39.1481ZM142.742 31.6896C142.742 28.7537 142.311 26.2682 141.388 24.2852L139.575 25.1289C140.333 26.7595 140.742 28.9291 140.742 31.6896H142.742ZM141.39 24.2904C140.477 22.2969 139.091 20.793 137.234 19.8294L136.313 21.6045C137.744 22.3474 138.83 23.5036 139.572 25.1237L141.39 24.2904ZM137.234 19.8294C135.412 18.8835 133.217 18.4371 130.694 18.4371V20.4371C132.99 20.4371 134.848 20.844 136.313 21.6045L137.234 19.8294ZM130.694 18.4371H125.5V20.4371H130.694V18.4371ZM124.5 19.4371V44.0174H126.5V19.4371H124.5ZM199.011 42.4553L198.131 41.9798L198.129 41.9827L199.011 42.4553ZM192.536 49.212L193.029 50.082L193.031 50.0812L192.536 49.212ZM174.129 49.1932L174.625 48.3249L174.129 49.1932ZM167.674 42.4364L166.792 42.909L167.674 42.4364ZM167.674 20.9993L168.555 21.4718L167.674 20.9993ZM174.129 14.2614L174.622 15.1313L174.625 15.1296L174.129 14.2614ZM192.536 14.2614L192.04 15.1296L192.045 15.1323L192.536 14.2614ZM199.011 20.9993L198.129 21.4718L198.131 21.4747L199.011 20.9993ZM191.915 24.8388L190.996 25.2334L190.999 25.2386L191.915 24.8388ZM188.508 20.5852L187.959 21.4206L188.508 20.5852ZM178.195 20.5852L178.744 21.4206H178.744L178.195 20.5852ZM174.769 24.8388L173.853 24.4389L173.85 24.4441L174.769 24.8388ZM174.769 38.6158L173.85 39.0104L173.853 39.0156L174.769 38.6158ZM178.195 42.8693L178.744 42.034H178.744L178.195 42.8693ZM188.508 42.8693L187.959 42.034L188.508 42.8693ZM191.915 38.6158L190.998 38.2159L190.996 38.2211L191.915 38.6158ZM200.401 31.7273C200.401 35.806 199.628 39.2098 198.131 41.9798L199.89 42.9307C201.58 39.8035 202.401 36.0552 202.401 31.7273H200.401ZM198.129 41.9827C196.631 44.7763 194.603 46.886 192.042 48.3428L193.031 50.0812C195.94 48.4262 198.228 46.0315 199.892 42.9278L198.129 41.9827ZM192.043 48.342C189.483 49.7929 186.594 50.527 183.352 50.527V52.527C186.909 52.527 190.143 51.7178 193.029 50.082L192.043 48.342ZM183.352 50.527C180.084 50.527 177.183 49.7866 174.625 48.3249L173.633 50.0614C176.521 51.7115 179.769 52.527 183.352 52.527V50.527ZM174.625 48.3249C172.077 46.8685 170.053 44.7586 168.555 41.9639L166.792 42.909C168.456 46.0115 170.736 48.4061 173.633 50.0614L174.625 48.3249ZM168.555 41.9639C167.069 39.1928 166.302 35.7941 166.302 31.7273H164.302C164.302 36.0421 165.116 39.7828 166.792 42.909L168.555 41.9639ZM166.302 31.7273C166.302 27.6474 167.069 24.2425 168.555 21.4718L166.792 20.5268C165.116 23.6533 164.302 27.4005 164.302 31.7273H166.302ZM168.555 21.4718C170.053 18.6777 172.075 16.575 174.622 15.1313L173.636 13.3914C170.738 15.0344 168.456 17.4236 166.792 20.5268L168.555 21.4718ZM174.625 15.1296C177.183 13.6679 180.084 12.9276 183.352 12.9276V10.9276C179.769 10.9276 176.521 11.7431 173.633 13.3931L174.625 15.1296ZM183.352 12.9276C186.593 12.9276 189.481 13.6673 192.04 15.1296L193.032 13.3931C190.146 11.7437 186.911 10.9276 183.352 10.9276V12.9276ZM192.045 15.1323C194.604 16.5763 196.632 18.6789 198.129 21.4718L199.892 20.5268C198.227 17.4225 195.939 15.0331 193.028 13.3904L192.045 15.1323ZM198.131 21.4747C199.628 24.2448 200.401 27.6485 200.401 31.7273H202.401C202.401 27.3993 201.58 23.6511 199.89 20.5239L198.131 21.4747ZM194.138 31.7273C194.138 28.9106 193.717 26.4693 192.832 24.4389L190.999 25.2386C191.744 26.9474 192.138 29.0984 192.138 31.7273H194.138ZM192.834 24.4441C191.966 22.4238 190.714 20.8398 189.058 19.7499L187.959 21.4206C189.239 22.2629 190.258 23.5146 190.996 25.2334L192.834 24.4441ZM189.058 19.7499C187.408 18.6636 185.492 18.136 183.352 18.136V20.136C185.15 20.136 186.673 20.5745 187.959 21.4206L189.058 19.7499ZM183.352 18.136C181.211 18.136 179.295 18.6636 177.645 19.7499L178.744 21.4206C180.03 20.5745 181.553 20.136 183.352 20.136V18.136ZM177.645 19.7499C175.99 20.8388 174.733 22.4209 173.853 24.4389L175.686 25.2386C176.437 23.5175 177.463 22.2639 178.744 21.4206L177.645 19.7499ZM173.85 24.4441C172.979 26.4729 172.565 28.9122 172.565 31.7273H174.565C174.565 29.0968 174.953 26.9438 175.688 25.2334L173.85 24.4441ZM172.565 31.7273C172.565 34.5423 172.979 36.9817 173.85 39.0104L175.688 38.2211C174.953 36.5107 174.565 34.3577 174.565 31.7273H172.565ZM173.853 39.0156C174.733 41.0336 175.99 42.6157 177.645 43.7046L178.744 42.034C177.463 41.1906 176.437 39.937 175.686 38.2159L173.853 39.0156ZM177.645 43.7046C179.295 44.7909 181.211 45.3185 183.352 45.3185V43.3185C181.553 43.3185 180.03 42.88 178.744 42.034L177.645 43.7046ZM183.352 45.3185C185.492 45.3185 187.408 44.7909 189.058 43.7046L187.959 42.034C186.673 42.88 185.15 43.3185 183.352 43.3185V45.3185ZM189.058 43.7046C190.714 42.6147 191.966 41.0307 192.834 39.0104L190.996 38.2211C190.258 39.9399 189.239 41.1916 187.959 42.034L189.058 43.7046ZM192.832 39.0156C193.717 36.9853 194.138 34.544 194.138 31.7273H192.138C192.138 34.3561 191.744 36.5071 190.999 38.2159L192.832 39.0156ZM217.508 12.4545V11.4545H216.508V12.4545H217.508ZM227.558 12.4545L228.483 12.0753L228.229 11.4545H227.558V12.4545ZM238.173 38.3523L237.248 38.7315L237.502 39.3523H238.173V38.3523ZM238.625 38.3523V39.3523H239.296L239.55 38.7315L238.625 38.3523ZM249.24 12.4545V11.4545H248.569L248.315 12.0753L249.24 12.4545ZM259.29 12.4545H260.29V11.4545H259.29V12.4545ZM259.29 51V52H260.29V51H259.29ZM251.386 51H250.386V52H251.386V51ZM251.386 25.9116H252.386V24.9116H251.386V25.9116ZM251.066 25.9116V24.9116H250.389L250.137 25.5397L251.066 25.9116ZM241.09 50.8118V51.8118H241.767L242.019 51.1837L241.09 50.8118ZM235.708 50.8118L234.779 51.1825L235.03 51.8118H235.708V50.8118ZM225.733 25.8175L226.661 25.4468L226.41 24.8175H225.733V25.8175ZM225.413 25.8175V24.8175H224.413V25.8175H225.413ZM225.413 51V52H226.413V51H225.413ZM217.508 51H216.508V52H217.508V51ZM217.508 13.4545H227.558V11.4545H217.508V13.4545ZM226.633 12.8338L237.248 38.7315L239.098 37.973L228.483 12.0753L226.633 12.8338ZM238.173 39.3523H238.625V37.3523H238.173V39.3523ZM239.55 38.7315L250.165 12.8338L248.315 12.0753L237.7 37.973L239.55 38.7315ZM249.24 13.4545H259.29V11.4545H249.24V13.4545ZM258.29 12.4545V51H260.29V12.4545H258.29ZM259.29 50H251.386V52H259.29V50ZM252.386 51V25.9116H250.386V51H252.386ZM251.386 24.9116H251.066V26.9116H251.386V24.9116ZM250.137 25.5397L240.162 50.4399L242.019 51.1837L251.994 26.2834L250.137 25.5397ZM241.09 49.8118H235.708V51.8118H241.09V49.8118ZM236.636 50.4411L226.661 25.4468L224.804 26.1881L234.779 51.1825L236.636 50.4411ZM225.733 24.8175H225.413V26.8175H225.733V24.8175ZM224.413 25.8175V51H226.413V25.8175H224.413ZM225.413 50H217.508V52H225.413V50ZM218.508 51V12.4545H216.508V51H218.508ZM312.127 9.289V8.289H311.127V9.289H312.127ZM312.127 15.225H311.127V16.225H312.127V15.225ZM335.5 15.225V16.225H336.5V15.225H335.5ZM335.5 9.289H336.5V8.289H335.5V9.289ZM309.689 21.956V20.956H308.689V21.956H309.689ZM309.689 27.892H308.689V28.892H309.689V27.892ZM338.415 27.892V28.892H339.415V27.892H338.415ZM338.415 21.956H339.415V20.956H338.415V21.956ZM320.077 24.871V23.871H319.077V24.871H320.077ZM319.176 49.039V50.039H319.215L319.253 50.0361L319.176 49.039ZM314.141 48.933L314.192 47.9343L312.608 47.8531L313.218 49.3176L314.141 48.933ZM315.943 55.505L314.949 55.6154L315.048 56.505H315.943V55.505ZM326.543 24.871H327.543V23.871H326.543V24.871ZM328.292 34.305L327.976 33.3563L326.958 33.6956L327.368 34.6871L328.292 34.305ZM333.274 51.265L332.283 51.3964L332.447 52.6376L333.622 52.2027L333.274 51.265ZM338.998 49.145L339.346 50.0827L340.113 49.7986L339.986 48.9903L338.998 49.145ZM333.539 32.556L334.449 32.1415L334.076 31.3228L333.223 31.6073L333.539 32.556ZM311.968 32.768L312.194 31.7938L311.212 31.5665L310.992 32.5501L311.968 32.768ZM305.82 47.714L305.012 47.1251L304.327 48.0648L305.359 48.6012L305.82 47.714ZM310.802 50.947L310.191 51.7383L311.047 52.3999L311.639 51.4942L310.802 50.947ZM317.692 34.093L318.663 34.3336L318.907 33.3478L317.918 33.1188L317.692 34.093ZM289.125 16.444V15.444H288.125V16.444H289.125ZM289.125 22.327H288.125V23.327H289.125V22.327ZM309.053 22.327V23.327H310.053V22.327H309.053ZM309.053 16.444H310.053V15.444H309.053V16.444ZM296.545 6.003V5.003H295.545V6.003H296.545ZM296.545 55.77H295.545V56.77H296.545V55.77ZM302.852 55.77V56.77H303.852V55.77H302.852ZM302.852 6.003H303.852V5.003H302.852V6.003ZM295.697 20.472L296.01 19.522L294.924 19.165L294.714 20.2887L295.697 20.472ZM288.224 39.022L287.439 38.4033L286.993 38.9688L287.388 39.5707L288.224 39.022ZM291.404 45.223L290.45 45.5213L291.053 47.4518L292.221 45.8003L291.404 45.223ZM299.566 21.744L300.551 21.9167L300.701 21.0643L299.879 20.794L299.566 21.744ZM302.587 23.175L303.309 22.4825L302.602 21.7462L301.88 22.4679L302.587 23.175ZM299.778 25.984L299.071 25.2769L298.469 25.8786L298.967 26.5688L299.778 25.984ZM306.456 36.902L305.559 37.3427L306.316 38.8851L307.283 37.4648L306.456 36.902ZM309.848 31.92L310.675 32.4828L311.082 31.8842L310.641 31.3103L309.848 31.92ZM311.127 9.289V15.225H313.127V9.289H311.127ZM312.127 16.225H335.5V14.225H312.127V16.225ZM336.5 15.225V9.289H334.5V15.225H336.5ZM335.5 8.289H312.127V10.289H335.5V8.289ZM308.689 21.956V27.892H310.689V21.956H308.689ZM309.689 28.892H338.415V26.892H309.689V28.892ZM339.415 27.892V21.956H337.415V27.892H339.415ZM338.415 20.956H309.689V22.956H338.415V20.956ZM319.077 24.871V48.191H321.077V24.871H319.077ZM319.077 48.191C319.077 48.2439 319.075 48.2785 319.073 48.2992C319.07 48.3199 319.069 48.3195 319.073 48.3046C319.078 48.2887 319.089 48.2556 319.114 48.2141C319.14 48.1712 319.173 48.129 319.214 48.0921C319.296 48.0182 319.362 48.004 319.341 48.0098C319.331 48.0125 319.308 48.018 319.266 48.0243C319.224 48.0305 319.17 48.0366 319.1 48.0419L319.253 50.0361C319.589 50.0102 320.139 49.9525 320.556 49.5752C321.028 49.1486 321.077 48.5669 321.077 48.191H319.077ZM319.176 48.039C318.486 48.039 316.231 48.0388 314.192 47.9343L314.09 49.9317C316.186 50.0392 318.488 50.039 319.176 50.039V48.039ZM313.218 49.3176C313.987 51.163 314.75 53.8252 314.949 55.6154L316.937 55.3946C316.712 53.3688 315.885 50.519 315.064 48.5484L313.218 49.3176ZM315.943 56.505C319.509 56.505 322.363 56.3645 324.581 55.1657L323.63 53.4063C321.925 54.3275 319.586 54.505 315.943 54.505V56.505ZM324.581 55.1657C325.772 54.5217 326.546 53.6191 326.996 52.417C327.426 51.2684 327.543 49.8871 327.543 48.297H325.543C325.543 49.8339 325.422 50.9171 325.123 51.7162C324.844 52.4619 324.399 52.9903 323.63 53.4063L324.581 55.1657ZM327.543 48.297V24.871H325.543V48.297H327.543ZM326.543 23.871H320.077V25.871H326.543V23.871ZM327.368 34.6871C329.628 40.1539 331.715 47.1144 332.283 51.3964L334.266 51.1336C333.667 46.6176 331.514 39.4801 329.216 33.9229L327.368 34.6871ZM333.622 52.2027L339.346 50.0827L338.651 48.2073L332.927 50.3273L333.622 52.2027ZM339.986 48.9903C339.278 44.4663 336.907 37.5368 334.449 32.1415L332.629 32.9705C335.048 38.2812 337.341 45.0257 338.01 49.2997L339.986 48.9903ZM333.223 31.6073L327.976 33.3563L328.608 35.2537L333.855 33.5047L333.223 31.6073ZM310.992 32.5501C309.79 37.9345 307.605 43.5663 305.012 47.1251L306.628 48.3029C309.442 44.4417 311.709 38.5195 312.944 32.9859L310.992 32.5501ZM305.359 48.6012C306.621 49.2573 309.061 50.8656 310.191 51.7383L311.414 50.1557C310.211 49.2264 307.67 47.5487 306.282 46.8268L305.359 48.6012ZM311.639 51.4942C314.42 47.2415 317.107 40.6106 318.663 34.3336L316.722 33.8524C315.203 39.9774 312.591 46.3845 309.965 50.3997L311.639 51.4942ZM317.918 33.1188L312.194 31.7938L311.743 33.7422L317.467 35.0672L317.918 33.1188ZM288.125 16.444V22.327H290.125V16.444H288.125ZM289.125 23.327H309.053V21.327H289.125V23.327ZM310.053 22.327V16.444H308.053V22.327H310.053ZM309.053 15.444H289.125V17.444H309.053V15.444ZM295.545 6.003V55.77H297.545V6.003H295.545ZM296.545 56.77H302.852V54.77H296.545V56.77ZM303.852 55.77V6.003H301.852V55.77H303.852ZM302.852 5.003H296.545V7.003H302.852V5.003ZM294.714 20.2887C293.563 26.4609 290.638 34.3403 287.439 38.4033L289.01 39.6407C292.488 35.2237 295.499 26.9911 296.68 20.6553L294.714 20.2887ZM287.388 39.5707C288.485 41.2412 289.961 43.9583 290.45 45.5213L292.359 44.9247C291.787 43.0957 290.19 40.1948 289.06 38.4733L287.388 39.5707ZM292.221 45.8003C294.159 43.0589 295.879 39.1218 297.289 34.8929C298.703 30.6485 299.828 26.0422 300.551 21.9167L298.581 21.5713C297.874 25.6078 296.772 30.1175 295.391 34.2604C294.005 38.4187 292.359 42.1401 290.588 44.6457L292.221 45.8003ZM299.879 20.794L296.01 19.522L295.385 21.422L299.254 22.694L299.879 20.794ZM301.88 22.4679L299.071 25.2769L300.485 26.6911L303.294 23.8821L301.88 22.4679ZM298.967 26.5688C300.588 28.8174 304.159 34.4924 305.559 37.3427L307.354 36.4613C305.891 33.4816 302.254 27.7086 300.589 25.3992L298.967 26.5688ZM307.283 37.4648L310.675 32.4828L309.022 31.3572L305.63 36.3392L307.283 37.4648ZM310.641 31.3103C309.579 29.9298 304.622 23.8501 303.309 22.4825L301.866 23.8675C303.097 25.1499 307.998 31.1542 309.056 32.5297L310.641 31.3103ZM373.978 26.461V25.461H372.978V26.461H373.978ZM373.978 32.079H372.978V33.079H373.978V32.079ZM399.365 32.079V33.079H400.365V32.079H399.365ZM399.365 26.461H400.365V25.461H399.365V26.461ZM373.978 37.008V36.008H372.978V37.008H373.978ZM373.978 42.573H372.978V43.573H373.978V42.573ZM399.365 42.573V43.573H400.365V42.573H399.365ZM399.365 37.008H400.365V36.008H399.365V37.008ZM374.084 47.714V46.714H373.084V47.714H374.084ZM374.084 53.597H373.084V54.597H374.084V53.597ZM401.803 53.597V54.597H402.803V53.597H401.803ZM401.803 47.714H402.803V46.714H401.803V47.714ZM384.26 18.087V17.087H383.26V18.087H384.26ZM384.26 51.371H383.26V52.371H384.26V51.371ZM390.302 51.371V52.371H391.302V51.371H390.302ZM390.302 18.087H391.302V17.087H390.302V18.087ZM388.5 6.321L388.752 5.35321L387.758 5.09463L387.526 6.09511L388.5 6.321ZM384.578 18.14L383.672 17.7171L383.189 18.7528L384.279 19.0943L384.578 18.14ZM389.825 19.783L389.526 20.7373L390.316 20.9846L390.707 20.2552L389.825 19.783ZM395.019 8.017L395.946 8.39243L396.374 7.33615L395.271 7.04921L395.019 8.017ZM375.144 6.003L375.418 5.04116L374.502 4.78055L374.197 5.68285L375.144 6.003ZM363.06 26.037L362.373 25.3108L361.577 26.064L362.4 26.7877L363.06 26.037ZM367.565 31.178L366.765 31.778L367.474 32.7232L368.289 31.8678L367.565 31.178ZM381.292 7.752L382.233 8.09192L382.597 7.08355L381.566 6.79016L381.292 7.752ZM375.568 16.126V15.126H375.148L374.853 15.4267L375.568 16.126ZM370.798 21.002L370.083 20.3027L369.798 20.5942V21.002H370.798ZM370.798 55.77H369.798V56.77H370.798V55.77ZM376.84 55.77V56.77H377.84V55.77H376.84ZM376.84 21.797V20.797H375.84V21.797H376.84ZM400.902 21.797V22.797H401.902V21.797H400.902ZM400.902 16.126H401.902V15.126H400.902V16.126ZM353.096 13.476L352.346 12.8144L351.58 13.6826L352.551 14.3141L353.096 13.476ZM362.477 21.267L361.702 21.8983L362.46 22.8301L363.239 21.9151L362.477 21.267ZM366.717 16.285L367.479 16.9331L368.041 16.2727L367.467 15.6228L366.717 16.285ZM357.071 8.971L357.594 8.1184L356.877 7.67929L356.321 8.30938L357.071 8.971ZM351.824 47.767L351.03 47.1595L350.439 47.932L351.195 48.5441L351.824 47.767ZM357.124 52.06L356.495 52.8371L357.345 53.526L357.955 52.6169L357.124 52.06ZM366.452 36.902L367.322 37.3962L367.717 36.7004L367.125 36.1621L366.452 36.902ZM361.788 32.662L362.461 31.9221L361.545 31.0896L360.924 32.1597L361.788 32.662ZM372.978 26.461V32.079H374.978V26.461H372.978ZM373.978 33.079H399.365V31.079H373.978V33.079ZM400.365 32.079V26.461H398.365V32.079H400.365ZM399.365 25.461H373.978V27.461H399.365V25.461ZM372.978 37.008V42.573H374.978V37.008H372.978ZM373.978 43.573H399.365V41.573H373.978V43.573ZM400.365 42.573V37.008H398.365V42.573H400.365ZM399.365 36.008H373.978V38.008H399.365V36.008ZM373.084 47.714V53.597H375.084V47.714H373.084ZM374.084 54.597H401.803V52.597H374.084V54.597ZM402.803 53.597V47.714H400.803V53.597H402.803ZM401.803 46.714H374.084V48.714H401.803V46.714ZM383.26 18.087V51.371H385.26V18.087H383.26ZM384.26 52.371H390.302V50.371H384.26V52.371ZM391.302 51.371V18.087H389.302V51.371H391.302ZM390.302 17.087H384.26V19.087H390.302V17.087ZM387.526 6.09511C386.689 9.70559 385.119 14.6174 383.672 17.7171L385.484 18.5629C387.006 15.3026 388.616 10.2504 389.474 6.54689L387.526 6.09511ZM384.279 19.0943L389.526 20.7373L390.124 18.8287L384.877 17.1857L384.279 19.0943ZM390.707 20.2552C392.327 17.2308 394.255 12.5666 395.946 8.39243L394.092 7.64156C392.391 11.8414 390.504 16.3992 388.944 19.3108L390.707 20.2552ZM395.271 7.04921L388.752 5.35321L388.248 7.28878L394.767 8.98478L395.271 7.04921ZM374.197 5.68285C371.639 13.2535 367.209 20.7319 362.373 25.3108L363.748 26.7632C368.876 21.9081 373.456 14.1225 376.092 6.32314L374.197 5.68285ZM362.4 26.7877C363.642 27.8814 365.817 30.5139 366.765 31.778L368.365 30.578C367.405 29.2981 365.128 26.5246 363.721 25.2863L362.4 26.7877ZM368.289 31.8678C373.761 26.1254 379.018 16.985 382.233 8.09192L380.352 7.41207C377.206 16.115 372.076 24.9946 366.841 30.4882L368.289 31.8678ZM381.566 6.79016L375.418 5.04116L374.871 6.96483L381.019 8.71383L381.566 6.79016ZM376.84 15.126H375.568V17.126H376.84V15.126ZM374.853 15.4267L370.083 20.3027L371.513 21.7013L376.283 16.8253L374.853 15.4267ZM369.798 21.002V55.77H371.798V21.002H369.798ZM370.798 56.77H376.84V54.77H370.798V56.77ZM377.84 55.77V21.797H375.84V55.77H377.84ZM376.84 22.797H400.902V20.797H376.84V22.797ZM401.902 21.797V16.126H399.902V21.797H401.902ZM400.902 15.126H376.84V17.126H400.902V15.126ZM352.551 14.3141C355.861 16.4687 359.945 19.7403 361.702 21.8983L363.253 20.6357C361.299 18.2357 357.009 14.8293 353.642 12.6379L352.551 14.3141ZM363.239 21.9151L367.479 16.9331L365.956 15.6369L361.716 20.6189L363.239 21.9151ZM367.467 15.6228C365.343 13.2196 360.878 10.1313 357.594 8.1184L356.549 9.8236C359.836 11.8387 364.064 14.7923 365.968 16.9472L367.467 15.6228ZM356.321 8.30938L352.346 12.8144L353.846 14.1376L357.821 9.63262L356.321 8.30938ZM351.195 48.5441L356.495 52.8371L357.754 51.2829L352.454 46.9899L351.195 48.5441ZM357.955 52.6169C361.098 47.9295 364.449 42.4492 367.322 37.3962L365.583 36.4078C362.731 41.4248 359.405 46.8625 356.294 51.5031L357.955 52.6169ZM367.125 36.1621L362.461 31.9221L361.116 33.4019L365.78 37.6419L367.125 36.1621ZM360.924 32.1597C357.709 37.6935 353.757 43.5937 351.03 47.1595L352.619 48.3745C355.404 44.7323 359.402 38.7605 362.653 33.1643L360.924 32.1597Z" fill="black"/>
</g>
<path d="M119.739 86H116.148V74.3636H119.898C121.027 74.3636 121.993 74.5966 122.796 75.0625C123.599 75.5246 124.214 76.1894 124.642 77.0568C125.07 77.9205 125.285 78.9545 125.285 80.1591C125.285 81.3712 125.069 82.4148 124.637 83.2898C124.205 84.161 123.576 84.8314 122.75 85.3011C121.925 85.767 120.921 86 119.739 86ZM117.557 84.75H119.648C120.61 84.75 121.408 84.5644 122.04 84.1932C122.673 83.822 123.144 83.2936 123.455 82.608C123.766 81.9223 123.921 81.1061 123.921 80.1591C123.921 79.2197 123.767 78.411 123.461 77.733C123.154 77.0511 122.695 76.5284 122.086 76.1648C121.476 75.7973 120.716 75.6136 119.807 75.6136H117.557V84.75ZM149.626 80.1818C149.626 81.4091 149.405 82.4697 148.962 83.3636C148.518 84.2576 147.91 84.947 147.138 85.4318C146.365 85.9167 145.482 86.1591 144.49 86.1591C143.498 86.1591 142.615 85.9167 141.842 85.4318C141.07 84.947 140.462 84.2576 140.018 83.3636C139.575 82.4697 139.354 81.4091 139.354 80.1818C139.354 78.9545 139.575 77.8939 140.018 77C140.462 76.1061 141.07 75.4167 141.842 74.9318C142.615 74.447 143.498 74.2045 144.49 74.2045C145.482 74.2045 146.365 74.447 147.138 74.9318C147.91 75.4167 148.518 76.1061 148.962 77C149.405 77.8939 149.626 78.9545 149.626 80.1818ZM148.263 80.1818C148.263 79.1742 148.094 78.3239 147.757 77.6307C147.424 76.9375 146.971 76.4129 146.399 76.0568C145.831 75.7008 145.195 75.5227 144.49 75.5227C143.785 75.5227 143.147 75.7008 142.575 76.0568C142.007 76.4129 141.554 76.9375 141.217 77.6307C140.884 78.3239 140.717 79.1742 140.717 80.1818C140.717 81.1894 140.884 82.0398 141.217 82.733C141.554 83.4261 142.007 83.9508 142.575 84.3068C143.147 84.6629 143.785 84.8409 144.49 84.8409C145.195 84.8409 145.831 84.6629 146.399 84.3068C146.971 83.9508 147.424 83.4261 147.757 82.733C148.094 82.0398 148.263 81.1894 148.263 80.1818ZM164.156 74.3636H165.837L169.792 84.0227H169.928L173.883 74.3636H175.565V86H174.247V77.1591H174.133L170.497 86H169.224L165.587 77.1591H165.474V86H164.156V74.3636ZM196.581 73.792V74.912H203.573V73.792H196.581ZM195.893 77.616V78.736H204.421V77.616H195.893ZM199.301 78.16V85.728C199.301 85.936 199.237 85.984 199.013 86C198.789 86.016 198.037 86.016 197.221 85.984C197.381 86.352 197.541 86.864 197.589 87.216C198.709 87.216 199.445 87.2 199.925 86.992C200.389 86.784 200.517 86.432 200.517 85.744V78.16H199.301ZM201.605 80.816C202.357 82.4 203.093 84.48 203.349 85.744L204.453 85.344C204.181 84.08 203.397 82.048 202.629 80.496L201.605 80.816ZM196.997 80.528C196.565 82.224 195.845 83.952 194.965 85.088C195.221 85.232 195.717 85.552 195.925 85.728C196.789 84.496 197.605 82.624 198.085 80.784L196.997 80.528ZM189.925 75.952V77.088H195.653V75.952H189.925ZM192.373 72.56V87.264H193.557V72.56H192.373ZM192.213 76.624C191.733 78.704 190.629 81.264 189.509 82.576C189.733 82.864 190.053 83.376 190.181 83.696C191.381 82.192 192.501 79.248 193.029 76.88L192.213 76.624ZM193.477 77.424L192.869 77.968C193.349 78.56 194.613 80.432 195.013 81.2L195.733 80.24C195.397 79.792 193.861 77.84 193.477 77.424ZM224.213 78.896V79.984H231.893V78.896H224.213ZM224.213 82.128V83.2H231.893V82.128H224.213ZM224.261 85.392V86.528H232.645V85.392H224.261ZM227.589 76.096V86.064H228.741V76.096H227.589ZM228.789 72.64C228.533 73.68 228.053 75.2 227.637 76.128L228.613 76.464C229.045 75.568 229.573 74.16 230.005 72.976L228.789 72.64ZM224.901 72.56C224.117 74.976 222.821 77.328 221.301 78.832C221.573 79.04 222.005 79.52 222.197 79.76C223.749 78.096 225.173 75.52 226.069 72.88L224.901 72.56ZM224.757 75.728H224.517L223.621 76.656V87.28H224.757V76.816H232.277V75.728H224.757ZM218.341 74.384C219.381 75.072 220.629 76.096 221.205 76.8L222.005 75.856C221.413 75.168 220.133 74.208 219.109 73.552L218.341 74.384ZM217.877 85.248L218.885 86.048C219.829 84.704 220.933 82.928 221.813 81.392L220.933 80.608C219.973 82.256 218.725 84.128 217.877 85.248ZM248.469 73.968V74.976H253.349V73.968H248.469ZM254.517 73.984V75.008H260.341V73.984H254.517ZM248.757 72.528C248.229 74.048 247.317 75.504 246.229 76.448C246.517 76.592 246.997 76.912 247.221 77.104C248.277 76.08 249.301 74.48 249.893 72.816L248.757 72.528ZM254.997 72.544C254.597 73.936 253.861 75.248 252.949 76.112C253.237 76.272 253.717 76.592 253.941 76.8C254.837 75.84 255.669 74.352 256.133 72.816L254.997 72.544ZM249.669 74.736C250.101 75.424 250.565 76.352 250.741 76.944L251.797 76.512C251.605 75.952 251.109 75.024 250.677 74.368L249.669 74.736ZM256.229 74.704C256.773 75.424 257.349 76.416 257.589 77.04L258.629 76.576C258.373 75.936 257.749 74.992 257.221 74.304L256.229 74.704ZM251.061 82.096V82.976H255.909V82.096H251.061ZM247.157 78.752V87.264H248.325V78.752H247.157ZM251.061 77.408V78.48H259.205V77.408H251.061ZM247.877 77.376C248.549 77.968 249.333 78.832 249.669 79.392L250.597 78.736C250.229 78.176 249.445 77.36 248.757 76.784L247.877 77.376ZM258.581 77.408V85.84C258.581 86.064 258.501 86.128 258.245 86.144C258.021 86.16 257.157 86.16 256.261 86.128C256.437 86.432 256.597 86.88 256.645 87.184C257.861 87.2 258.645 87.184 259.125 87.008C259.605 86.832 259.749 86.512 259.749 85.84V77.408H258.581ZM251.605 80.752H255.381V84.416H251.605V80.752ZM250.565 79.808V85.344H256.453V79.808H250.565ZM277.621 72.624C276.837 75.04 275.525 77.44 274.101 79.008C274.325 79.296 274.677 79.92 274.805 80.192C276.373 78.384 277.829 75.664 278.757 72.96L277.621 72.624ZM276.181 76.752V87.264H277.317V75.632L277.301 75.616L276.181 76.752ZM282.901 72.624V87.2H284.069V72.624H282.901ZM278.389 75.792V76.944H288.869V75.792H278.389ZM280.261 83.216V84.304H286.661V83.216H280.261ZM284.645 76.384L283.749 76.656C284.693 79.776 286.405 82.96 288.277 84.672C288.501 84.352 288.901 83.936 289.189 83.728C287.317 82.224 285.557 79.248 284.645 76.384ZM282.405 76.32C281.461 79.248 279.637 82.288 277.765 83.808C278.037 84 278.437 84.416 278.613 84.72C280.549 82.96 282.293 79.792 283.285 76.592L282.405 76.32ZM303.317 75.424V83.04H304.517V76.608H314.965V82.96H316.213V75.424H303.317ZM303.957 80.864V82.032H315.685V80.864H303.957ZM309.109 72.56V87.264H310.357V72.56H309.109ZM341.525 75.888C339.733 81.376 336.261 84.512 330.549 86.144C330.805 86.432 331.189 87.008 331.317 87.312C337.141 85.424 340.773 82.128 342.789 76.256L341.525 75.888ZM334.261 75.968L333.077 76.336C335.045 81.936 338.565 85.744 344.501 87.296C344.693 86.944 345.077 86.4 345.365 86.112C339.589 84.768 335.989 81.088 334.261 75.968ZM330.741 75.28V76.464H345.205V75.28H330.741ZM337.301 72.56V76H338.533V72.56H337.301ZM358.885 76.416V77.344H365.813V76.416H358.885ZM359.989 83.152V84.016H364.965V83.152H359.989ZM359.973 85.408V86.352H364.917V85.408H359.973ZM362.069 73.744V80.592H363.109V73.744H362.069ZM362.149 81.424V85.904H363.013V81.424H362.149ZM365.093 72.672C363.669 73.04 361.077 73.312 358.981 73.44C359.093 73.68 359.221 74.032 359.269 74.272C361.397 74.192 364.053 73.92 365.749 73.504L365.093 72.672ZM362.981 77.184L362.453 77.712C363.141 78.208 364.885 79.68 365.445 80.288L366.069 79.344C365.605 78.976 363.557 77.536 362.981 77.184ZM359.685 74.64C359.925 75.2 360.197 75.968 360.325 76.416L361.173 76.128C361.061 75.712 360.773 74.976 360.517 74.432L359.685 74.64ZM364.533 74.224C364.309 74.896 363.909 75.92 363.573 76.544L364.341 76.816C364.693 76.224 365.093 75.328 365.445 74.528L364.533 74.224ZM361.941 76.928C361.237 78.096 359.829 79.472 358.677 80.144C358.853 80.432 359.077 80.88 359.173 81.2C360.421 80.368 361.861 78.72 362.661 77.328L361.941 76.928ZM359.429 80.896V87.264H360.389V81.84H364.629V87.088H365.605V80.896H359.429ZM366.277 73.312V74.352H369.029V73.312H366.277ZM368.437 73.312V85.904C368.437 86.112 368.373 86.16 368.197 86.16C368.021 86.176 367.445 86.176 366.837 86.16C366.981 86.448 367.125 86.928 367.157 87.216C368.005 87.216 368.597 87.184 368.949 87.008C369.317 86.832 369.429 86.496 369.429 85.904V73.312H368.437ZM369.829 73.328V74.368H372.341V73.328H369.829ZM371.973 73.328V85.888C371.973 86.096 371.909 86.16 371.717 86.16C371.541 86.176 370.917 86.176 370.277 86.144C370.437 86.448 370.613 86.944 370.661 87.232C371.525 87.232 372.117 87.2 372.485 87.024C372.869 86.848 372.997 86.512 372.997 85.904V73.328H371.973ZM366.245 76.16C366.693 77.184 367.141 78.56 367.317 79.376L368.165 79.072C367.989 78.272 367.509 76.944 367.045 75.92L366.245 76.16ZM369.829 76.112C370.261 77.136 370.709 78.464 370.885 79.28L371.749 79.008C371.557 78.24 371.093 76.912 370.645 75.936L369.829 76.112ZM369.653 82.64L370.213 83.488C371.013 82.64 371.909 81.648 372.725 80.688L372.229 79.888C371.285 80.96 370.293 82.016 369.653 82.64ZM365.973 82.832L366.533 83.664C367.365 82.768 368.357 81.664 369.253 80.624L368.757 79.808C367.733 80.976 366.661 82.128 365.973 82.832ZM387.861 73.536C388.549 74.384 389.365 75.568 389.717 76.32L390.693 75.6C390.325 74.896 389.477 73.76 388.773 72.928L387.861 73.536ZM389.141 86.896C389.349 86.592 389.749 86.256 392.149 84.432C392.021 84.208 391.813 83.76 391.701 83.44L389.205 85.28L388.901 85.776L389.141 86.896ZM386.997 77.568V78.736H390.021V77.568H386.997ZM392.165 73.424V74.496H399.957V73.424H392.165ZM399.621 73.424V73.616C398.261 76.352 394.709 78.304 391.381 79.104C391.605 79.36 391.893 79.84 392.021 80.144C395.541 79.152 399.189 77.072 400.821 73.808L400.053 73.36L399.845 73.424H399.621ZM394.149 73.92L393.205 74.272C394.725 77.136 397.589 79.104 401.061 79.968C401.221 79.664 401.557 79.2 401.813 78.96C398.373 78.24 395.525 76.432 394.149 73.92ZM392.837 80.832V81.904H400.421V80.832H392.837ZM391.973 83.616V84.688H401.461V83.616H391.973ZM396.021 79.424V87.312H397.221V79.424H396.021ZM389.141 86.896C389.141 86.416 390.405 85.328 390.405 85.328V77.568H389.253V84.448C389.253 85.232 388.757 85.792 388.469 86.032C388.677 86.208 389.013 86.64 389.141 86.896Z" fill="#686565"/>
<g clip-path="url(#clip0_202_393)">
<path d="M45 85.5C67.3675 85.5 85.5 67.3675 85.5 45C85.5 22.6325 67.3675 4.5 45 4.5C22.6325 4.5 4.5 22.6325 4.5 45C4.5 67.3675 22.6325 85.5 45 85.5Z" fill="white" stroke="#3C790A" stroke-width="10"/>
<path d="M45 22.5V36L31.5 45L22.5 58.5M31.5 45L40.5 58.5L31.5 45ZM45 36L58.5 45L67.5 58.5M58.5 45L49.5 58.5L58.5 45Z" fill="white"/>
<path d="M45 22.5V36L31.5 45L22.5 58.5M31.5 45L40.5 58.5M45 36L58.5 45L67.5 58.5M58.5 45L49.5 58.5" stroke="#3C790A" stroke-width="10"/>
</g>
<defs>
<filter id="filter0_d_202_393" x="113.35" y="6.00293" width="292.453" height="57.7671" filterUnits="userSpaceOnUse" color-interpolation-filters="sRGB">
<feFlood flood-opacity="0" result="BackgroundImageFix"/>
<feColorMatrix in="SourceAlpha" type="matrix" values="0 0 0 0 0 0 0 0 0 0 0 0 0 0 0 0 0 0 127 0" result="hardAlpha"/>
<feOffset dy="4"/>
<feGaussianBlur stdDeviation="2"/>
<feComposite in2="hardAlpha" operator="out"/>
<feColorMatrix type="matrix" values="0 0 0 0 0 0 0 0 0 0 0 0 0 0 0 0 0 0 0.25 0"/>
<feBlend mode="normal" in2="BackgroundImageFix" result="effect1_dropShadow_202_393"/>
<feBlend mode="normal" in="SourceGraphic" in2="effect1_dropShadow_202_393" result="shape"/>
</filter>
<clipPath id="clip0_202_393">
<rect width="90" height="90" fill="white"/>
</clipPath>
</defs>
</svg>
