<svg width="543" height="90" viewBox="0 0 543 90" fill="none" xmlns="http://www.w3.org/2000/svg">
<g filter="url(#filter0_d_202_391)">
<path d="M131.014 51H117.35V12.4545H131.127C135.004 12.4545 138.342 13.2262 141.14 14.7695C143.938 16.3003 146.09 18.5024 147.596 21.3757C149.114 24.2491 149.873 27.687 149.873 31.6896C149.873 35.7048 149.114 39.1553 147.596 42.0412C146.09 44.9271 143.925 47.1417 141.102 48.685C138.292 50.2283 134.929 51 131.014 51ZM125.5 44.0174H130.675C133.085 44.0174 135.111 43.5908 136.755 42.7376C138.411 41.8718 139.653 40.5355 140.481 38.7287C141.322 36.9093 141.742 34.563 141.742 31.6896C141.742 28.8414 141.322 26.5138 140.481 24.707C139.653 22.9002 138.417 21.5702 136.773 20.717C135.13 19.8638 133.103 19.4371 130.694 19.4371H125.5V44.0174ZM195.836 31.7273C195.836 35.9306 195.039 39.5066 193.446 42.4553C191.865 45.4039 189.706 47.6561 186.971 49.212C184.248 50.7553 181.187 51.527 177.787 51.527C174.361 51.527 171.287 50.7491 168.564 49.1932C165.841 47.6373 163.69 45.3851 162.109 42.4364C160.528 39.4878 159.737 35.9181 159.737 31.7273C159.737 27.5239 160.528 23.9479 162.109 20.9993C163.69 18.0507 165.841 15.8047 168.564 14.2614C171.287 12.7055 174.361 11.9276 177.787 11.9276C181.187 11.9276 184.248 12.7055 186.971 14.2614C189.706 15.8047 191.865 18.0507 193.446 20.9993C195.039 23.9479 195.836 27.5239 195.836 31.7273ZM187.573 31.7273C187.573 29.0045 187.166 26.7083 186.35 24.8388C185.547 22.9692 184.412 21.5514 182.943 20.5852C181.475 19.6191 179.756 19.136 177.787 19.136C175.817 19.136 174.098 19.6191 172.63 20.5852C171.162 21.5514 170.02 22.9692 169.204 24.8388C168.401 26.7083 168 29.0045 168 31.7273C168 34.45 168.401 36.7462 169.204 38.6158C170.02 40.4853 171.162 41.9032 172.63 42.8693C174.098 43.8355 175.817 44.3185 177.787 44.3185C179.756 44.3185 181.475 43.8355 182.943 42.8693C184.412 41.9032 185.547 40.4853 186.35 38.6158C187.166 36.7462 187.573 34.45 187.573 31.7273ZM206.378 12.4545H216.428L227.043 38.3523H227.495L238.11 12.4545H248.16V51H240.256V25.9116H239.936L229.96 50.8118H224.578L214.603 25.8175H214.283V51H206.378V12.4545ZM297.062 23.5401C296.911 22.0219 296.265 20.8424 295.123 20.0018C293.981 19.1611 292.432 18.7408 290.474 18.7408C289.144 18.7408 288.021 18.929 287.105 19.3054C286.189 19.6693 285.487 20.1774 284.997 20.8299C284.52 21.4824 284.282 22.2227 284.282 23.0508C284.257 23.7409 284.401 24.3432 284.715 24.8576C285.041 25.372 285.487 25.8175 286.051 26.1939C286.616 26.5578 287.268 26.8777 288.009 27.1538C288.749 27.4173 289.539 27.6431 290.38 27.8313L293.843 28.6594C295.525 29.0359 297.068 29.5378 298.473 30.1651C299.878 30.7925 301.096 31.5642 302.124 32.4801C303.153 33.3961 303.95 34.4751 304.515 35.7173C305.092 36.9595 305.387 38.3836 305.399 39.9897C305.387 42.3486 304.784 44.3938 303.592 46.1254C302.413 47.8443 300.707 49.1806 298.473 50.1342C296.252 51.0753 293.573 51.5458 290.437 51.5458C287.325 51.5458 284.615 51.069 282.306 50.1154C280.01 49.1618 278.215 47.7502 276.923 45.8807C275.643 43.9986 274.972 41.671 274.909 38.8981H282.795C282.883 40.1905 283.253 41.2695 283.906 42.1353C284.571 42.9885 285.455 43.6347 286.559 44.0739C287.676 44.5005 288.937 44.7138 290.342 44.7138C291.723 44.7138 292.921 44.513 293.937 44.1115C294.966 43.71 295.763 43.1516 296.328 42.4364C296.892 41.7212 297.174 40.8994 297.174 39.9709C297.174 39.1051 296.917 38.3774 296.403 37.7876C295.901 37.1979 295.161 36.696 294.182 36.282C293.216 35.8679 292.03 35.4915 290.625 35.1527L286.428 34.0987C283.178 33.3082 280.612 32.0723 278.73 30.391C276.848 28.7096 275.913 26.4448 275.926 23.5966C275.913 21.2628 276.534 19.2238 277.789 17.4798C279.056 15.7357 280.794 14.3743 283.002 13.3956C285.211 12.4169 287.72 11.9276 290.531 11.9276C293.391 11.9276 295.888 12.4169 298.021 13.3956C300.167 14.3743 301.836 15.7357 303.028 17.4798C304.22 19.2238 304.835 21.244 304.872 23.5401H297.062ZM330.612 22.0909V28.1136H313.203V22.0909H330.612ZM317.155 15.1648H325.173V42.1165C325.173 42.8568 325.286 43.4339 325.512 43.848C325.737 44.2495 326.051 44.5318 326.453 44.695C326.867 44.8581 327.344 44.9396 327.883 44.9396C328.259 44.9396 328.636 44.9083 329.012 44.8455C329.389 44.7702 329.677 44.7138 329.878 44.6761L331.139 50.6424C330.738 50.7679 330.173 50.9122 329.445 51.0753C328.717 51.2509 327.833 51.3576 326.791 51.3952C324.859 51.4705 323.165 51.2133 321.71 50.6236C320.267 50.0339 319.144 49.1179 318.341 47.8757C317.538 46.6335 317.143 45.0651 317.155 43.1705V15.1648ZM348.584 51.5458C346.739 51.5458 345.095 51.2259 343.652 50.5859C342.209 49.9335 341.068 48.9736 340.227 47.7063C339.399 46.4265 338.985 44.833 338.985 42.9258C338.985 41.3197 339.28 39.9709 339.869 38.8793C340.459 37.7876 341.262 36.9093 342.278 36.2443C343.295 35.5793 344.449 35.0774 345.742 34.7386C347.046 34.3999 348.414 34.1615 349.845 34.0234C351.526 33.8478 352.881 33.6847 353.91 33.5341C354.939 33.371 355.685 33.1326 356.15 32.8189C356.614 32.5052 356.846 32.041 356.846 31.4261V31.3132C356.846 30.1212 356.47 29.199 355.717 28.5465C354.976 27.8941 353.922 27.5678 352.555 27.5678C351.112 27.5678 349.964 27.8878 349.111 28.5277C348.257 29.1551 347.693 29.9455 347.417 30.8991L340.001 30.2969C340.378 28.5402 341.118 27.022 342.222 25.7422C343.326 24.4498 344.75 23.4586 346.494 22.7685C348.251 22.0658 350.284 21.7145 352.592 21.7145C354.198 21.7145 355.736 21.9027 357.204 22.2791C358.684 22.6555 359.995 23.239 361.137 24.0295C362.292 24.82 363.201 25.8363 363.866 27.0785C364.531 28.3081 364.864 29.7824 364.864 31.5014V51H357.26V46.9911H357.034C356.57 47.8945 355.949 48.6913 355.171 49.3814C354.393 50.0589 353.458 50.5922 352.367 50.9812C351.275 51.3576 350.014 51.5458 348.584 51.5458ZM350.88 46.0124C352.059 46.0124 353.101 45.7803 354.004 45.3161C354.907 44.8393 355.616 44.1993 356.131 43.3963C356.645 42.5933 356.902 41.6836 356.902 40.6673V37.5994C356.651 37.7625 356.306 37.9131 355.867 38.0511C355.441 38.1766 354.958 38.2958 354.418 38.4087C353.879 38.5091 353.339 38.6032 352.799 38.6911C352.26 38.7663 351.771 38.8353 351.331 38.8981C350.39 39.0361 349.568 39.2557 348.866 39.5568C348.163 39.858 347.617 40.2657 347.228 40.7802C346.839 41.2821 346.645 41.9094 346.645 42.6623C346.645 43.7539 347.04 44.5883 347.831 45.1655C348.634 45.7301 349.65 46.0124 350.88 46.0124ZM383.607 34.2869V51H375.589V22.0909H383.23V27.1914H383.569C384.209 25.5101 385.282 24.18 386.788 23.2013C388.293 22.2101 390.119 21.7145 392.264 21.7145C394.272 21.7145 396.022 22.1536 397.516 23.032C399.009 23.9103 400.169 25.165 400.997 26.7962C401.826 28.4148 402.24 30.3471 402.24 32.593V51H394.222V34.0234C394.234 32.2543 393.783 30.8741 392.867 29.8828C391.951 28.879 390.69 28.3771 389.084 28.3771C388.005 28.3771 387.051 28.6093 386.223 29.0735C385.407 29.5378 384.767 30.2153 384.303 31.1062C383.851 31.9845 383.619 33.0447 383.607 34.2869ZM423.717 51.4705C421.521 51.4705 419.532 50.9059 417.75 49.7766C415.981 48.6348 414.576 46.9598 413.534 44.7514C412.505 42.5305 411.991 39.8078 411.991 36.5831C411.991 33.2706 412.524 30.5165 413.591 28.3207C414.657 26.1123 416.075 24.4624 417.844 23.3707C419.626 22.2666 421.577 21.7145 423.698 21.7145C425.316 21.7145 426.665 21.9905 427.744 22.5426C428.836 23.0821 429.714 23.7597 430.379 24.5753C431.057 25.3783 431.571 26.1688 431.922 26.9467H432.167V12.4545H440.166V51H432.261V46.37H431.922C431.546 47.1731 431.013 47.9698 430.323 48.7603C429.645 49.5382 428.761 50.1844 427.669 50.6989C426.59 51.2133 425.272 51.4705 423.717 51.4705ZM426.257 45.0902C427.55 45.0902 428.641 44.7389 429.532 44.0362C430.436 43.321 431.126 42.3235 431.603 41.0437C432.092 39.7638 432.337 38.2644 432.337 36.5455C432.337 34.8265 432.098 33.3333 431.621 32.066C431.145 30.7988 430.454 29.8201 429.551 29.13C428.648 28.4399 427.55 28.0948 426.257 28.0948C424.94 28.0948 423.829 28.4524 422.926 29.1676C422.023 29.8828 421.339 30.8741 420.875 32.1413C420.41 33.4086 420.178 34.8767 420.178 36.5455C420.178 38.2268 420.41 39.7137 420.875 41.006C421.351 42.2859 422.035 43.2897 422.926 44.0174C423.829 44.7326 424.94 45.0902 426.257 45.0902ZM459.507 51.5458C457.662 51.5458 456.019 51.2259 454.576 50.5859C453.133 49.9335 451.991 48.9736 451.15 47.7063C450.322 46.4265 449.908 44.833 449.908 42.9258C449.908 41.3197 450.203 39.9709 450.793 38.8793C451.382 37.7876 452.185 36.9093 453.202 36.2443C454.218 35.5793 455.372 35.0774 456.665 34.7386C457.97 34.3999 459.337 34.1615 460.768 34.0234C462.449 33.8478 463.804 33.6847 464.833 33.5341C465.862 33.371 466.609 33.1326 467.073 32.8189C467.537 32.5052 467.769 32.041 467.769 31.4261V31.3132C467.769 30.1212 467.393 29.199 466.64 28.5465C465.9 27.8941 464.846 27.5678 463.478 27.5678C462.035 27.5678 460.887 27.8878 460.034 28.5277C459.181 29.1551 458.616 29.9455 458.34 30.8991L450.924 30.2969C451.301 28.5402 452.041 27.022 453.145 25.7422C454.249 24.4498 455.674 23.4586 457.418 22.7685C459.174 22.0658 461.207 21.7145 463.516 21.7145C465.122 21.7145 466.659 21.9027 468.127 22.2791C469.607 22.6555 470.919 23.239 472.06 24.0295C473.215 24.82 474.124 25.8363 474.789 27.0785C475.454 28.3081 475.787 29.7824 475.787 31.5014V51H468.183V46.9911H467.957C467.493 47.8945 466.872 48.6913 466.094 49.3814C465.316 50.0589 464.381 50.5922 463.29 50.9812C462.198 51.3576 460.937 51.5458 459.507 51.5458ZM461.803 46.0124C462.982 46.0124 464.024 45.7803 464.927 45.3161C465.831 44.8393 466.54 44.1993 467.054 43.3963C467.568 42.5933 467.826 41.6836 467.826 40.6673V37.5994C467.575 37.7625 467.23 37.9131 466.79 38.0511C466.364 38.1766 465.881 38.2958 465.341 38.4087C464.802 38.5091 464.262 38.6032 463.723 38.6911C463.183 38.7663 462.694 38.8353 462.255 38.8981C461.314 39.0361 460.492 39.2557 459.789 39.5568C459.086 39.858 458.541 40.2657 458.152 40.7802C457.763 41.2821 457.568 41.9094 457.568 42.6623C457.568 43.7539 457.963 44.5883 458.754 45.1655C459.557 45.7301 460.573 46.0124 461.803 46.0124ZM486.512 51V22.0909H494.285V27.1349H494.586C495.113 25.3407 495.998 23.9856 497.24 23.0696C498.482 22.1411 499.913 21.6768 501.531 21.6768C501.933 21.6768 502.366 21.7019 502.83 21.7521C503.294 21.8023 503.702 21.8713 504.053 21.9592V29.0735C503.677 28.9606 503.156 28.8602 502.491 28.7724C501.826 28.6845 501.218 28.6406 500.666 28.6406C499.486 28.6406 498.432 28.8978 497.504 29.4123C496.588 29.9142 495.86 30.6168 495.32 31.5202C494.794 32.4237 494.53 33.4651 494.53 34.6445V51H486.512ZM522.011 51.4705C519.815 51.4705 517.826 50.9059 516.045 49.7766C514.275 48.6348 512.87 46.9598 511.829 44.7514C510.8 42.5305 510.285 39.8078 510.285 36.5831C510.285 33.2706 510.819 30.5165 511.885 28.3207C512.952 26.1123 514.369 24.4624 516.139 23.3707C517.92 22.2666 519.871 21.7145 521.992 21.7145C523.611 21.7145 524.959 21.9905 526.038 22.5426C527.13 23.0821 528.008 23.7597 528.673 24.5753C529.351 25.3783 529.865 26.1688 530.217 26.9467H530.461V12.4545H538.46V51H530.556V46.37H530.217C529.84 47.1731 529.307 47.9698 528.617 48.7603C527.939 49.5382 527.055 50.1844 525.963 50.6989C524.884 51.2133 523.567 51.4705 522.011 51.4705ZM524.552 45.0902C525.844 45.0902 526.936 44.7389 527.826 44.0362C528.73 43.321 529.42 42.3235 529.897 41.0437C530.386 39.7638 530.631 38.2644 530.631 36.5455C530.631 34.8265 530.392 33.3333 529.916 32.066C529.439 30.7988 528.749 29.8201 527.845 29.13C526.942 28.4399 525.844 28.0948 524.552 28.0948C523.234 28.0948 522.124 28.4524 521.22 29.1676C520.317 29.8828 519.633 30.8741 519.169 32.1413C518.705 33.4086 518.472 34.8767 518.472 36.5455C518.472 38.2268 518.705 39.7137 519.169 41.006C519.646 42.2859 520.329 43.2897 521.22 44.0174C522.124 44.7326 523.234 45.0902 524.552 45.0902Z" fill="black"/>
<path d="M117.35 51H116.35V52H117.35V51ZM117.35 12.4545V11.4545H116.35V12.4545H117.35ZM141.14 14.7695L140.657 15.6452L140.66 15.6468L141.14 14.7695ZM147.596 21.3757L146.71 21.8399L146.711 21.8429L147.596 21.3757ZM147.596 42.0412L146.711 41.5756L146.709 41.5786L147.596 42.0412ZM141.102 48.685L140.623 47.8076L140.621 47.8085L141.102 48.685ZM125.5 44.0174H124.5V45.0174H125.5V44.0174ZM136.755 42.7376L137.215 43.6251L137.218 43.6238L136.755 42.7376ZM140.481 38.7287L139.573 38.3092L139.572 38.312L140.481 38.7287ZM140.481 24.707L139.572 25.1237L139.575 25.1289L140.481 24.707ZM136.773 20.717L137.234 19.8294L136.773 20.717ZM125.5 19.4371V18.4371H124.5V19.4371H125.5ZM131.014 50H117.35V52H131.014V50ZM118.35 51V12.4545H116.35V51H118.35ZM117.35 13.4545H131.127V11.4545H117.35V13.4545ZM131.127 13.4545C134.871 13.4545 138.035 14.1991 140.657 15.6452L141.623 13.8939C138.648 12.2533 135.137 11.4545 131.127 11.4545V13.4545ZM140.66 15.6468C143.282 17.0812 145.294 19.1381 146.71 21.8399L148.481 20.9116C146.886 17.8667 144.594 15.5194 141.62 13.8922L140.66 15.6468ZM146.711 21.8429C148.138 24.5426 148.873 27.8127 148.873 31.6896H150.873C150.873 27.5614 150.09 23.9555 148.48 20.9085L146.711 21.8429ZM148.873 31.6896C148.873 35.5795 148.138 38.8628 146.711 41.5756L148.481 42.5068C150.09 39.4478 150.873 35.83 150.873 31.6896H148.873ZM146.709 41.5786C145.294 44.2912 143.27 46.3604 140.623 47.8076L141.582 49.5625C144.581 47.923 146.886 45.563 148.482 42.5038L146.709 41.5786ZM140.621 47.8085C137.987 49.2547 134.798 50 131.014 50V52C135.06 52 138.596 51.2019 141.584 49.5616L140.621 47.8085ZM125.5 45.0174H130.675V43.0174H125.5V45.0174ZM130.675 45.0174C133.198 45.0174 135.393 44.5711 137.215 43.6251L136.294 41.85C134.829 42.6105 132.971 43.0174 130.675 43.0174V45.0174ZM137.218 43.6238C139.084 42.6485 140.476 41.1401 141.39 39.1453L139.572 38.312C138.83 39.9309 137.738 41.0951 136.291 41.8513L137.218 43.6238ZM141.389 39.1481C142.311 37.1531 142.742 34.6496 142.742 31.6896H140.742C140.742 34.4763 140.333 36.6656 139.573 38.3092L141.389 39.1481ZM142.742 31.6896C142.742 28.7537 142.311 26.2682 141.388 24.2852L139.575 25.1289C140.333 26.7595 140.742 28.9291 140.742 31.6896H142.742ZM141.39 24.2904C140.477 22.2969 139.091 20.793 137.234 19.8294L136.313 21.6045C137.744 22.3474 138.83 23.5036 139.572 25.1237L141.39 24.2904ZM137.234 19.8294C135.412 18.8835 133.217 18.4371 130.694 18.4371V20.4371C132.99 20.4371 134.848 20.844 136.313 21.6045L137.234 19.8294ZM130.694 18.4371H125.5V20.4371H130.694V18.4371ZM124.5 19.4371V44.0174H126.5V19.4371H124.5ZM193.446 42.4553L192.566 41.9798L192.564 41.9827L193.446 42.4553ZM186.971 49.212L187.464 50.082L187.466 50.0812L186.971 49.212ZM168.564 49.1932L169.06 48.3249L168.564 49.1932ZM162.109 42.4364L161.227 42.909L162.109 42.4364ZM162.109 20.9993L162.99 21.4718L162.109 20.9993ZM168.564 14.2614L169.057 15.1313L169.06 15.1296L168.564 14.2614ZM186.971 14.2614L186.475 15.1296L186.48 15.1323L186.971 14.2614ZM193.446 20.9993L192.564 21.4718L192.566 21.4747L193.446 20.9993ZM186.35 24.8388L185.431 25.2334L185.434 25.2386L186.35 24.8388ZM182.943 20.5852L182.394 21.4206L182.943 20.5852ZM172.63 20.5852L173.179 21.4206L172.63 20.5852ZM169.204 24.8388L168.288 24.4389L168.285 24.4441L169.204 24.8388ZM169.204 38.6158L168.285 39.0104L168.288 39.0156L169.204 38.6158ZM172.63 42.8693L173.179 42.034L172.63 42.8693ZM182.943 42.8693L182.394 42.034L182.943 42.8693ZM186.35 38.6158L185.433 38.2159L185.431 38.2211L186.35 38.6158ZM194.836 31.7273C194.836 35.806 194.063 39.2098 192.566 41.9798L194.325 42.9307C196.015 39.8035 196.836 36.0552 196.836 31.7273H194.836ZM192.564 41.9827C191.066 44.7763 189.038 46.886 186.477 48.3428L187.466 50.0812C190.375 48.4262 192.663 46.0315 194.327 42.9278L192.564 41.9827ZM186.478 48.342C183.918 49.7929 181.029 50.527 177.787 50.527V52.527C181.344 52.527 184.578 51.7178 187.464 50.082L186.478 48.342ZM177.787 50.527C174.519 50.527 171.618 49.7866 169.06 48.3249L168.068 50.0614C170.956 51.7115 174.204 52.527 177.787 52.527V50.527ZM169.06 48.3249C166.512 46.8685 164.488 44.7586 162.99 41.9639L161.227 42.909C162.891 46.0115 165.171 48.4061 168.068 50.0614L169.06 48.3249ZM162.99 41.9639C161.504 39.1928 160.737 35.7941 160.737 31.7273H158.737C158.737 36.0421 159.551 39.7828 161.227 42.909L162.99 41.9639ZM160.737 31.7273C160.737 27.6474 161.504 24.2425 162.99 21.4718L161.227 20.5268C159.551 23.6533 158.737 27.4005 158.737 31.7273H160.737ZM162.99 21.4718C164.488 18.6777 166.51 16.575 169.057 15.1313L168.071 13.3914C165.173 15.0344 162.891 17.4236 161.227 20.5268L162.99 21.4718ZM169.06 15.1296C171.618 13.6679 174.519 12.9276 177.787 12.9276V10.9276C174.204 10.9276 170.956 11.7431 168.068 13.3931L169.06 15.1296ZM177.787 12.9276C181.028 12.9276 183.916 13.6673 186.475 15.1296L187.467 13.3931C184.581 11.7437 181.346 10.9276 177.787 10.9276V12.9276ZM186.48 15.1323C189.039 16.5763 191.067 18.6789 192.564 21.4718L194.327 20.5268C192.662 17.4225 190.374 15.0331 187.463 13.3904L186.48 15.1323ZM192.566 21.4747C194.063 24.2448 194.836 27.6485 194.836 31.7273H196.836C196.836 27.3993 196.015 23.6511 194.325 20.5239L192.566 21.4747ZM188.573 31.7273C188.573 28.9106 188.152 26.4693 187.267 24.4389L185.434 25.2386C186.179 26.9474 186.573 29.0984 186.573 31.7273H188.573ZM187.269 24.4441C186.401 22.4238 185.149 20.8398 183.493 19.7499L182.394 21.4206C183.674 22.2629 184.693 23.5146 185.431 25.2334L187.269 24.4441ZM183.493 19.7499C181.843 18.6636 179.927 18.136 177.787 18.136V20.136C179.585 20.136 181.108 20.5745 182.394 21.4206L183.493 19.7499ZM177.787 18.136C175.646 18.136 173.73 18.6636 172.08 19.7499L173.179 21.4206C174.465 20.5745 175.988 20.136 177.787 20.136V18.136ZM172.08 19.7499C170.425 20.8388 169.168 22.4209 168.288 24.4389L170.121 25.2386C170.872 23.5175 171.898 22.2639 173.179 21.4206L172.08 19.7499ZM168.285 24.4441C167.414 26.4729 167 28.9122 167 31.7273H169C169 29.0968 169.388 26.9438 170.123 25.2334L168.285 24.4441ZM167 31.7273C167 34.5423 167.414 36.9817 168.285 39.0104L170.123 38.2211C169.388 36.5107 169 34.3577 169 31.7273H167ZM168.288 39.0156C169.168 41.0336 170.425 42.6157 172.08 43.7046L173.179 42.034C171.898 41.1906 170.872 39.937 170.121 38.2159L168.288 39.0156ZM172.08 43.7046C173.73 44.7909 175.646 45.3185 177.787 45.3185V43.3185C175.988 43.3185 174.465 42.88 173.179 42.034L172.08 43.7046ZM177.787 45.3185C179.927 45.3185 181.843 44.7909 183.493 43.7046L182.394 42.034C181.108 42.88 179.585 43.3185 177.787 43.3185V45.3185ZM183.493 43.7046C185.149 42.6147 186.401 41.0307 187.269 39.0104L185.431 38.2211C184.693 39.9399 183.674 41.1916 182.394 42.034L183.493 43.7046ZM187.267 39.0156C188.152 36.9853 188.573 34.544 188.573 31.7273H186.573C186.573 34.3561 186.179 36.5071 185.434 38.2159L187.267 39.0156ZM206.378 12.4545V11.4545H205.378V12.4545H206.378ZM216.428 12.4545L217.353 12.0753L217.099 11.4545H216.428V12.4545ZM227.043 38.3523L226.118 38.7315L226.372 39.3523H227.043V38.3523ZM227.495 38.3523V39.3523H228.166L228.42 38.7315L227.495 38.3523ZM238.11 12.4545V11.4545H237.439L237.185 12.0753L238.11 12.4545ZM248.16 12.4545H249.16V11.4545H248.16V12.4545ZM248.16 51V52H249.16V51H248.16ZM240.256 51H239.256V52H240.256V51ZM240.256 25.9116H241.256V24.9116H240.256V25.9116ZM239.936 25.9116V24.9116H239.259L239.007 25.5397L239.936 25.9116ZM229.96 50.8118V51.8118H230.637L230.889 51.1837L229.96 50.8118ZM224.578 50.8118L223.649 51.1825L223.9 51.8118H224.578V50.8118ZM214.603 25.8175L215.531 25.4468L215.28 24.8175H214.603V25.8175ZM214.283 25.8175V24.8175H213.283V25.8175H214.283ZM214.283 51V52H215.283V51H214.283ZM206.378 51H205.378V52H206.378V51ZM206.378 13.4545H216.428V11.4545H206.378V13.4545ZM215.503 12.8338L226.118 38.7315L227.968 37.973L217.353 12.0753L215.503 12.8338ZM227.043 39.3523H227.495V37.3523H227.043V39.3523ZM228.42 38.7315L239.035 12.8338L237.185 12.0753L226.57 37.973L228.42 38.7315ZM238.11 13.4545H248.16V11.4545H238.11V13.4545ZM247.16 12.4545V51H249.16V12.4545H247.16ZM248.16 50H240.256V52H248.16V50ZM241.256 51V25.9116H239.256V51H241.256ZM240.256 24.9116H239.936V26.9116H240.256V24.9116ZM239.007 25.5397L229.032 50.4399L230.889 51.1837L240.864 26.2834L239.007 25.5397ZM229.96 49.8118H224.578V51.8118H229.96V49.8118ZM225.506 50.4411L215.531 25.4468L213.674 26.1881L223.649 51.1825L225.506 50.4411ZM214.603 24.8175H214.283V26.8175H214.603V24.8175ZM213.283 25.8175V51H215.283V25.8175H213.283ZM214.283 50H206.378V52H214.283V50ZM207.378 51V12.4545H205.378V51H207.378ZM297.062 23.5401L296.066 23.6388L296.156 24.5401H297.062V23.5401ZM287.105 19.3054L287.474 20.2348L287.485 20.2303L287.105 19.3054ZM284.997 20.8299L284.197 20.2299L284.19 20.2399L284.997 20.8299ZM284.282 23.0508L285.281 23.0871L285.282 23.069V23.0508H284.282ZM284.715 24.8576L283.861 25.3782L283.866 25.3857L283.87 25.3931L284.715 24.8576ZM286.051 26.1939L285.497 27.0259L285.503 27.0303L285.51 27.0345L286.051 26.1939ZM288.009 27.1538L287.659 28.0907L287.666 28.0934L287.673 28.0959L288.009 27.1538ZM290.38 27.8313L290.613 26.8587L290.606 26.8571L290.599 26.8555L290.38 27.8313ZM293.843 28.6594L293.611 29.632L293.618 29.6337L293.625 29.6353L293.843 28.6594ZM298.473 30.1651L298.065 31.0783L298.473 30.1651ZM302.124 32.4801L302.789 31.7332L302.124 32.4801ZM304.515 35.7173L303.604 36.1311L303.608 36.1387L304.515 35.7173ZM305.399 39.9897L306.399 39.995L306.399 39.9819L305.399 39.9897ZM303.592 46.1254L302.769 45.5583L302.768 45.5596L303.592 46.1254ZM298.473 50.1342L298.863 51.055L298.866 51.0539L298.473 50.1342ZM282.306 50.1154L281.922 51.0389L281.924 51.0397L282.306 50.1154ZM276.923 45.8807L276.096 46.443L276.1 46.4493L276.923 45.8807ZM274.909 38.8981V37.8981H273.886L273.909 38.9207L274.909 38.8981ZM282.795 38.8981L283.793 38.8303L283.73 37.8981H282.795V38.8981ZM283.906 42.1353L283.107 42.7371L283.112 42.7436L283.117 42.75L283.906 42.1353ZM286.559 44.0739L286.19 45.0032L286.203 45.008L286.559 44.0739ZM293.937 44.1115L293.574 43.1799L293.57 43.1815L293.937 44.1115ZM296.328 42.4364L297.112 43.0561L296.328 42.4364ZM296.403 37.7876L295.641 38.4358L295.649 38.445L296.403 37.7876ZM294.182 36.282L293.788 37.2011L293.792 37.2029L294.182 36.282ZM290.625 35.1527L290.381 36.1226L290.39 36.1248L290.625 35.1527ZM286.428 34.0987L286.671 33.1288L286.664 33.1271L286.428 34.0987ZM278.73 30.391L278.064 31.1367L278.73 30.391ZM275.926 23.5966L276.926 23.601L276.926 23.5912L275.926 23.5966ZM277.789 17.4798L276.98 16.8919L276.977 16.8958L277.789 17.4798ZM298.021 13.3956L297.604 14.3045L297.606 14.3054L298.021 13.3956ZM303.028 17.4798L302.202 18.044V18.044L303.028 17.4798ZM304.872 23.5401V24.5401H305.889L305.872 23.5237L304.872 23.5401ZM298.057 23.4414C297.881 21.6654 297.105 20.2189 295.716 19.1965L294.53 20.8071C295.425 21.466 295.941 22.3784 296.066 23.6388L298.057 23.4414ZM295.716 19.1965C294.348 18.1892 292.565 17.7408 290.474 17.7408V19.7408C292.298 19.7408 293.615 20.133 294.53 20.8071L295.716 19.1965ZM290.474 17.7408C289.056 17.7408 287.795 17.9406 286.725 18.3805L287.485 20.2303C288.247 19.9173 289.232 19.7408 290.474 19.7408V17.7408ZM286.736 18.376C285.685 18.7937 284.818 19.402 284.197 20.2299L285.797 21.4299C286.155 20.9529 286.694 20.5448 287.474 20.2347L286.736 18.376ZM284.19 20.2399C283.585 21.0681 283.282 22.0162 283.282 23.0508H285.282C285.282 22.4291 285.456 21.8966 285.805 21.4199L284.19 20.2399ZM283.283 23.0144C283.252 23.871 283.431 24.6729 283.861 25.3782L285.569 24.337C285.371 24.0134 285.262 23.6108 285.281 23.0871L283.283 23.0144ZM283.87 25.3931C284.28 26.0384 284.829 26.5809 285.497 27.0259L286.606 25.3618C286.144 25.0541 285.803 24.7057 285.559 24.3221L283.87 25.3931ZM285.51 27.0345C286.144 27.4434 286.863 27.7938 287.659 28.0907L288.358 26.2168C287.674 25.9616 287.088 25.6721 286.593 25.3533L285.51 27.0345ZM287.673 28.0959C288.455 28.3742 289.285 28.6109 290.162 28.8072L290.599 26.8555C289.794 26.6753 289.043 26.4603 288.344 26.2117L287.673 28.0959ZM290.148 28.8039L293.611 29.632L294.076 27.6869L290.613 26.8587L290.148 28.8039ZM293.625 29.6353C295.249 29.9989 296.728 30.481 298.065 31.0783L298.881 29.252C297.408 28.5945 295.8 28.0729 294.062 27.6836L293.625 29.6353ZM298.065 31.0783C299.388 31.6686 300.516 32.3868 301.459 33.227L302.789 31.7332C301.675 30.7415 300.369 29.9164 298.881 29.252L298.065 31.0783ZM301.459 33.227C302.385 34.0512 303.098 35.0171 303.604 36.1311L305.425 35.3035C304.802 33.9332 303.921 32.741 302.789 31.7332L301.459 33.227ZM303.608 36.1387C304.115 37.2308 304.388 38.5099 304.399 39.9975L306.399 39.9819C306.386 38.2573 306.068 36.6882 305.422 35.2959L303.608 36.1387ZM304.399 39.9844C304.388 42.168 303.833 44.0119 302.769 45.5583L304.416 46.6924C305.736 44.7758 306.386 42.5292 306.399 39.995L304.399 39.9844ZM302.768 45.5596C301.713 47.0976 300.169 48.323 298.08 49.2146L298.866 51.0539C301.245 50.0383 303.113 48.5911 304.417 46.6911L302.768 45.5596ZM298.083 49.2135C296.017 50.0891 293.478 50.5458 290.437 50.5458V52.5458C293.669 52.5458 296.488 52.0615 298.863 51.055L298.083 49.2135ZM290.437 50.5458C287.425 50.5458 284.85 50.0841 282.688 49.1912L281.924 51.0397C284.38 52.0539 287.225 52.5458 290.437 52.5458V50.5458ZM282.689 49.1919C280.553 48.3048 278.919 47.0088 277.746 45.312L276.1 46.4493C277.512 48.4916 279.466 50.0189 281.922 51.0389L282.689 49.1919ZM277.75 45.3184C276.6 43.6276 275.968 41.4981 275.909 38.8755L273.909 38.9207C273.976 41.844 274.686 44.3696 276.096 46.443L277.75 45.3184ZM274.909 39.8981H282.795V37.8981H274.909V39.8981ZM281.798 38.9659C281.896 40.4136 282.317 41.6884 283.107 42.7371L284.704 41.5334C284.19 40.8506 283.87 39.9673 283.793 38.8303L281.798 38.9659ZM283.117 42.75C283.902 43.757 284.937 44.5049 286.19 45.0031L286.929 43.1447C285.973 42.7645 285.24 42.22 284.694 41.5206L283.117 42.75ZM286.203 45.008C287.451 45.4851 288.836 45.7138 290.342 45.7138V43.7138C289.038 43.7138 287.901 43.5159 286.916 43.1397L286.203 45.008ZM290.342 45.7138C291.817 45.7138 293.145 45.4997 294.305 45.0416L293.57 43.1815C292.697 43.5264 291.629 43.7138 290.342 43.7138V45.7138ZM294.301 45.0431C295.46 44.5906 296.416 43.9377 297.112 43.0561L295.543 41.8168C295.109 42.3655 294.472 42.8294 293.574 43.1799L294.301 45.0431ZM297.112 43.0561C297.819 42.1608 298.174 41.1196 298.174 39.9709H296.174C296.174 40.6791 295.965 41.2817 295.543 41.8168L297.112 43.0561ZM298.174 39.9709C298.174 38.891 297.847 37.9219 297.156 37.1303L295.649 38.445C295.988 38.8328 296.174 39.3192 296.174 39.9709H298.174ZM297.164 37.1395C296.531 36.3954 295.643 35.8144 294.572 35.361L293.792 37.2029C294.678 37.5777 295.271 38.0005 295.641 38.4358L297.164 37.1395ZM294.576 35.3628C293.543 34.9202 292.3 34.528 290.859 34.1805L290.39 36.1248C291.76 36.455 292.889 36.8156 293.788 37.2011L294.576 35.3628ZM290.868 34.1828L286.671 33.1288L286.184 35.0686L290.381 36.1226L290.868 34.1828ZM286.664 33.1271C283.524 32.3633 281.122 31.1873 279.396 29.6452L278.064 31.1367C280.102 32.9574 282.832 34.2532 286.191 35.0704L286.664 33.1271ZM279.396 29.6452C277.756 28.1803 276.914 26.2039 276.926 23.601L274.926 23.5922C274.912 26.6858 275.939 29.239 278.064 31.1367L279.396 29.6452ZM276.926 23.5912C276.914 21.4496 277.48 19.6212 278.601 18.0638L276.977 16.8958C275.588 18.8265 274.912 21.076 274.926 23.602L276.926 23.5912ZM278.598 18.0676C279.75 16.4825 281.34 15.226 283.407 14.3098L282.597 12.4814C280.248 13.5226 278.363 14.9888 276.98 16.8919L278.598 18.0676ZM283.407 14.3098C285.469 13.3962 287.837 12.9276 290.531 12.9276V10.9276C287.603 10.9276 284.952 11.4376 282.597 12.4814L283.407 14.3098ZM290.531 12.9276C293.278 12.9276 295.628 13.3975 297.604 14.3045L298.438 12.4867C296.149 11.4363 293.505 10.9276 290.531 10.9276V12.9276ZM297.606 14.3054C299.606 15.2175 301.125 16.4674 302.202 18.044L303.853 16.9155C302.547 15.004 300.728 13.5311 298.436 12.4858L297.606 14.3054ZM302.202 18.044C303.274 19.6124 303.838 21.4383 303.872 23.5565L305.872 23.5237C305.832 21.0496 305.166 18.8353 303.853 16.9155L302.202 18.044ZM304.872 22.5401H297.062V24.5401H304.872V22.5401ZM330.612 22.0909H331.612V21.0909H330.612V22.0909ZM330.612 28.1136V29.1136H331.612V28.1136H330.612ZM313.203 28.1136H312.203V29.1136H313.203V28.1136ZM313.203 22.0909V21.0909H312.203V22.0909H313.203ZM317.155 15.1648V14.1648H316.155V15.1648H317.155ZM325.173 15.1648H326.173V14.1648H325.173V15.1648ZM325.512 43.848L324.634 44.3269L324.64 44.3383L325.512 43.848ZM326.453 44.695L326.076 45.6215L326.086 45.6254L326.453 44.695ZM329.012 44.8455L329.177 45.8319L329.193 45.8293L329.208 45.8261L329.012 44.8455ZM329.878 44.6761L330.856 44.4693L330.654 43.5132L329.694 43.6933L329.878 44.6761ZM331.139 50.6424L331.437 51.5969L332.306 51.3256L332.117 50.4356L331.139 50.6424ZM329.445 51.0753L329.226 50.0995L329.218 50.1013L329.211 50.1032L329.445 51.0753ZM326.791 51.3952L326.755 50.3959L326.752 50.396L326.791 51.3952ZM321.71 50.6236L321.331 51.5493L321.334 51.5504L321.71 50.6236ZM318.341 47.8757L319.181 47.3328L318.341 47.8757ZM317.155 43.1705L318.155 43.1771V43.1705H317.155ZM329.612 22.0909V28.1136H331.612V22.0909H329.612ZM330.612 27.1136H313.203V29.1136H330.612V27.1136ZM314.203 28.1136V22.0909H312.203V28.1136H314.203ZM313.203 23.0909H330.612V21.0909H313.203V23.0909ZM317.155 16.1648H325.173V14.1648H317.155V16.1648ZM324.173 15.1648V42.1165H326.173V15.1648H324.173ZM324.173 42.1165C324.173 42.9378 324.295 43.7053 324.634 44.3269L326.389 43.3692C326.277 43.1626 326.173 42.7757 326.173 42.1165H324.173ZM324.64 44.3383C324.969 44.9237 325.451 45.3675 326.076 45.6214L326.829 43.7685C326.651 43.6961 326.506 43.5754 326.383 43.3577L324.64 44.3383ZM326.086 45.6254C326.639 45.8431 327.244 45.9396 327.883 45.9396V43.9396C327.443 43.9396 327.095 43.8731 326.819 43.7645L326.086 45.6254ZM327.883 45.9396C328.315 45.9396 328.747 45.9036 329.177 45.8319L328.848 43.8591C328.525 43.9129 328.204 43.9396 327.883 43.9396V45.9396ZM329.208 45.8261C329.584 45.7511 329.868 45.6955 330.062 45.659L329.694 43.6933C329.487 43.732 329.194 43.7894 328.816 43.8649L329.208 45.8261ZM328.9 44.8829L330.161 50.8492L332.117 50.4356L330.856 44.4693L328.9 44.8829ZM330.841 49.6879C330.478 49.8013 329.944 49.9386 329.226 50.0995L329.664 52.0511C330.401 51.8858 330.997 51.7345 331.437 51.5969L330.841 49.6879ZM329.211 50.1032C328.568 50.2584 327.754 50.3598 326.755 50.3959L326.828 52.3946C327.912 52.3554 328.867 52.2435 329.68 52.0474L329.211 50.1032ZM326.752 50.396C324.93 50.467 323.383 50.2224 322.085 49.6968L321.334 51.5504C322.948 52.2042 324.788 52.474 326.83 52.3945L326.752 50.396ZM322.088 49.6979C320.824 49.1812 319.866 48.3937 319.181 47.3328L317.501 48.4186C318.421 49.8421 319.71 50.8866 321.331 51.5493L322.088 49.6979ZM319.181 47.3328C318.509 46.2946 318.143 44.9312 318.155 43.1771L316.155 43.1638C316.142 45.199 316.566 46.9725 317.501 48.4186L319.181 47.3328ZM318.155 43.1705V15.1648H316.155V43.1705H318.155ZM343.652 50.5859L343.24 51.4971L343.247 51.5001L343.652 50.5859ZM340.227 47.7063L339.387 48.2496L339.394 48.2591L340.227 47.7063ZM339.869 38.8793L338.99 38.404L339.869 38.8793ZM342.278 36.2443L341.731 35.4075L342.278 36.2443ZM345.742 34.7386L345.49 33.7707L345.488 33.7713L345.742 34.7386ZM349.845 34.0234L349.941 35.0188L349.948 35.018L349.845 34.0234ZM353.91 33.5341L354.055 34.5236L354.066 34.5218L353.91 33.5341ZM356.15 32.8189L355.59 31.9903L356.15 32.8189ZM355.717 28.5465L355.055 29.2968L355.062 29.3022L355.717 28.5465ZM349.111 28.5277L349.703 29.3334L349.711 29.3277L349.111 28.5277ZM347.417 30.8991L347.336 31.8959L348.15 31.962L348.377 31.1772L347.417 30.8991ZM340.001 30.2969L339.023 30.0873L338.785 31.2014L339.92 31.2936L340.001 30.2969ZM342.222 25.7422L342.979 26.3954L342.982 26.3918L342.222 25.7422ZM346.494 22.7685L346.862 23.6983L346.866 23.6969L346.494 22.7685ZM357.204 22.2791L356.955 23.2478L356.957 23.2483L357.204 22.2791ZM361.137 24.0295L360.568 24.8517L360.572 24.8546L361.137 24.0295ZM363.866 27.0785L362.985 27.5505L362.987 27.5542L363.866 27.0785ZM364.864 51V52H365.864V51H364.864ZM357.26 51H356.26V52H357.26V51ZM357.26 46.9911H358.26V45.9911H357.26V46.9911ZM357.034 46.9911V45.9911H356.424L356.145 46.5341L357.034 46.9911ZM355.171 49.3814L355.828 50.1355L355.835 50.1295L355.171 49.3814ZM352.367 50.9812L352.693 51.9266L352.702 51.9232L352.367 50.9812ZM354.004 45.3161L354.461 46.2055L354.471 46.2004L354.004 45.3161ZM356.131 43.3963L355.289 42.8569L356.131 43.3963ZM356.902 37.5994H357.902V35.7567L356.357 36.761L356.902 37.5994ZM355.867 38.0511L356.149 39.0105L356.158 39.0079L356.167 39.0051L355.867 38.0511ZM354.418 38.4087L354.601 39.3919L354.612 39.3898L354.623 39.3875L354.418 38.4087ZM352.799 38.6911L352.938 39.6815L352.949 39.6799L352.96 39.6781L352.799 38.6911ZM351.331 38.8981L351.19 37.9081L351.186 37.9087L351.331 38.8981ZM348.866 39.5568L349.26 40.476L348.866 39.5568ZM347.228 40.7802L348.019 41.3928L348.026 41.3833L347.228 40.7802ZM347.831 45.1655L347.241 45.9731L347.248 45.9784L347.256 45.9835L347.831 45.1655ZM348.584 50.5458C346.855 50.5458 345.353 50.2464 344.058 49.6718L343.247 51.5001C344.837 52.2053 346.623 52.5458 348.584 52.5458V50.5458ZM344.064 49.6748C342.785 49.0964 341.793 48.2574 341.06 47.1535L339.394 48.2591C340.343 49.6898 341.634 50.7705 343.24 51.4971L344.064 49.6748ZM341.067 47.1631C340.367 46.0814 339.985 44.6885 339.985 42.9258H337.985C337.985 44.9774 338.431 46.7716 339.387 48.2496L341.067 47.1631ZM339.985 42.9258C339.985 41.4382 340.258 40.2635 340.749 39.3546L338.99 38.404C338.301 39.6783 337.985 41.2012 337.985 42.9258H339.985ZM340.749 39.3546C341.262 38.4059 341.952 37.6531 342.826 37.0811L341.731 35.4075C340.572 36.1656 339.657 37.1694 338.99 38.404L340.749 39.3546ZM342.826 37.0811C343.743 36.4808 344.797 36.0201 345.995 35.706L345.488 33.7713C344.102 34.1347 342.846 34.6778 341.731 35.4075L342.826 37.0811ZM345.993 35.7066C347.244 35.3818 348.559 35.1521 349.941 35.0188L349.748 33.0281C348.269 33.1708 346.849 33.4179 345.49 33.7707L345.993 35.7066ZM349.948 35.018C351.636 34.8417 353.007 34.6769 354.055 34.5236L353.765 32.5446C352.755 32.6924 351.416 32.8539 349.741 33.0289L349.948 35.018ZM354.066 34.5218C355.136 34.3521 356.06 34.0863 356.709 33.6475L355.59 31.9903C355.311 32.1788 354.741 32.3898 353.753 32.5464L354.066 34.5218ZM356.709 33.6475C357.479 33.1275 357.846 32.335 357.846 31.4261H355.846C355.846 31.7469 355.749 31.8829 355.59 31.9903L356.709 33.6475ZM357.846 31.4261V31.3132H355.846V31.4261H357.846ZM357.846 31.3132C357.846 29.8937 357.387 28.6707 356.372 27.7908L355.062 29.3022C355.552 29.7273 355.846 30.3487 355.846 31.3132H357.846ZM356.378 27.7963C355.395 26.93 354.072 26.5678 352.555 26.5678V28.5678C353.773 28.5678 354.558 28.8581 355.055 29.2967L356.378 27.7963ZM352.555 26.5678C350.971 26.5678 349.589 26.919 348.511 27.7277L349.711 29.3277C350.339 28.8566 351.253 28.5678 352.555 28.5678V26.5678ZM348.518 27.722C347.5 28.4706 346.798 29.4413 346.456 30.6211L348.377 31.1772C348.588 30.4498 349.015 29.8395 349.703 29.3333L348.518 27.722ZM347.498 29.9024L340.082 29.3002L339.92 31.2936L347.336 31.8959L347.498 29.9024ZM340.979 30.5064C341.322 28.9032 341.992 27.5402 342.979 26.3954L341.465 25.089C340.244 26.5038 339.433 28.1773 339.023 30.0873L340.979 30.5064ZM342.982 26.3918C343.97 25.2359 345.254 24.3347 346.862 23.6983L346.126 21.8386C344.247 22.5824 342.682 23.6638 341.462 25.0926L342.982 26.3918ZM346.866 23.6969C348.481 23.0507 350.384 22.7145 352.592 22.7145V20.7145C350.184 20.7145 348.021 21.0809 346.123 21.84L346.866 23.6969ZM352.592 22.7145C354.12 22.7145 355.573 22.8934 356.955 23.2478L357.452 21.3105C355.898 20.912 354.277 20.7145 352.592 20.7145V22.7145ZM356.957 23.2483C358.334 23.5983 359.533 24.1355 360.568 24.8517L361.706 23.2073C360.457 22.3425 359.035 21.7128 357.45 21.3099L356.957 23.2483ZM360.572 24.8546C361.593 25.5538 362.395 26.4486 362.985 27.5505L364.748 26.6065C364.008 25.224 362.99 24.0862 361.702 23.2044L360.572 24.8546ZM362.987 27.5542C363.556 28.6078 363.864 29.9109 363.864 31.5014H365.864C365.864 29.654 365.506 28.0084 364.746 26.6028L362.987 27.5542ZM363.864 31.5014V51H365.864V31.5014H363.864ZM364.864 50H357.26V52H364.864V50ZM358.26 51V46.9911H356.26V51H358.26ZM357.26 45.9911H357.034V47.9911H357.26V45.9911ZM356.145 46.5341C355.738 47.3247 355.195 48.0234 354.507 48.6333L355.835 50.1295C356.703 49.3592 357.401 48.4644 357.924 47.4482L356.145 46.5341ZM354.514 48.6273C353.841 49.2132 353.019 49.6871 352.031 50.0392L352.702 51.9232C353.897 51.4974 354.944 50.9047 355.828 50.1355L354.514 48.6273ZM352.041 50.0358C351.075 50.3686 349.928 50.5458 348.584 50.5458V52.5458C350.099 52.5458 351.474 52.3466 352.693 51.9266L352.041 50.0358ZM350.88 47.0124C352.192 47.0124 353.395 46.7533 354.461 46.2055L353.547 44.4266C352.806 44.8073 351.926 45.0124 350.88 45.0124V47.0124ZM354.471 46.2004C355.516 45.6489 356.359 44.8946 356.973 43.9357L355.289 42.8569C354.874 43.5041 354.299 44.0296 353.537 44.4317L354.471 46.2004ZM356.973 43.9357C357.597 42.961 357.902 41.8617 357.902 40.6673H355.902C355.902 41.5055 355.693 42.2256 355.289 42.8569L356.973 43.9357ZM357.902 40.6673V37.5994H355.902V40.6673H357.902ZM356.357 36.761C356.212 36.8556 355.961 36.9734 355.567 37.0971L356.167 39.0051C356.652 38.8528 357.091 38.6695 357.447 38.4379L356.357 36.761ZM355.585 37.0918C355.189 37.2082 354.733 37.3212 354.213 37.4299L354.623 39.3875C355.183 39.2704 355.692 39.145 356.149 39.0105L355.585 37.0918ZM354.235 37.4256C353.703 37.5246 353.171 37.6174 352.639 37.704L352.96 39.6781C353.507 39.589 354.054 39.4936 354.601 39.3919L354.235 37.4256ZM352.661 37.7006C352.121 37.776 351.63 37.8452 351.19 37.9081L351.473 39.888C351.911 39.8255 352.399 39.7566 352.938 39.6815L352.661 37.7006ZM351.186 37.9087C350.18 38.0563 349.271 38.2953 348.472 38.6377L349.26 40.476C349.866 40.216 350.601 40.0159 351.477 39.8875L351.186 37.9087ZM348.472 38.6377C347.639 38.9945 346.942 39.5003 346.431 40.1771L348.026 41.3833C348.292 41.0312 348.687 40.7214 349.26 40.476L348.472 38.6377ZM346.438 40.1676C345.889 40.8758 345.645 41.7303 345.645 42.6623H347.645C347.645 42.0886 347.79 41.6884 348.019 41.3928L346.438 40.1676ZM345.645 42.6623C345.645 44.0307 346.16 45.1839 347.241 45.9731L348.42 44.3579C347.92 43.9927 347.645 43.4772 347.645 42.6623H345.645ZM347.256 45.9835C348.265 46.6935 349.497 47.0124 350.88 47.0124V45.0124C349.804 45.0124 349.002 44.7667 348.406 44.3475L347.256 45.9835ZM383.607 34.2869L382.607 34.2768V34.2869H383.607ZM383.607 51V52H384.607V51H383.607ZM375.589 51H374.589V52H375.589V51ZM375.589 22.0909V21.0909H374.589V22.0909H375.589ZM383.23 22.0909H384.23V21.0909H383.23V22.0909ZM383.23 27.1914H382.23V28.1914H383.23V27.1914ZM383.569 27.1914V28.1914H384.259L384.504 27.5471L383.569 27.1914ZM386.788 23.2013L387.333 24.0398L387.337 24.0366L386.788 23.2013ZM397.516 23.032L398.023 22.17L397.516 23.032ZM400.997 26.7962L400.106 27.2489L400.107 27.2516L400.997 26.7962ZM402.24 51V52H403.24V51H402.24ZM394.222 51H393.222V52H394.222V51ZM394.222 34.0234L393.222 34.0163V34.0234H394.222ZM392.867 29.8828L392.128 30.5569L392.132 30.5615L392.867 29.8828ZM386.223 29.0735L385.734 28.2012L385.728 28.2044L386.223 29.0735ZM384.303 31.1062L383.416 30.644L383.414 30.6488L384.303 31.1062ZM382.607 34.2869V51H384.607V34.2869H382.607ZM383.607 50H375.589V52H383.607V50ZM376.589 51V22.0909H374.589V51H376.589ZM375.589 23.0909H383.23V21.0909H375.589V23.0909ZM382.23 22.0909V27.1914H384.23V22.0909H382.23ZM383.23 28.1914H383.569V26.1914H383.23V28.1914ZM384.504 27.5471C385.068 26.0635 386.005 24.9027 387.333 24.0398L386.243 22.3629C384.559 23.4574 383.35 24.9566 382.635 26.8357L384.504 27.5471ZM387.337 24.0366C388.651 23.1719 390.277 22.7145 392.264 22.7145V20.7145C389.961 20.7145 387.936 21.2483 386.238 22.3661L387.337 24.0366ZM392.264 22.7145C394.122 22.7145 395.692 23.1195 397.009 23.8939L398.023 22.17C396.353 21.1878 394.422 20.7145 392.264 20.7145V22.7145ZM397.009 23.8939C398.328 24.6698 399.359 25.778 400.106 27.2489L401.889 26.3435C400.98 24.552 399.69 23.1507 398.023 22.17L397.009 23.8939ZM400.107 27.2516C400.848 28.6999 401.24 30.4688 401.24 32.593H403.24C403.24 30.2253 402.803 28.1296 401.888 26.3407L400.107 27.2516ZM401.24 32.593V51H403.24V32.593H401.24ZM402.24 50H394.222V52H402.24V50ZM395.222 51V34.0234H393.222V51H395.222ZM395.222 34.0305C395.236 32.0886 394.738 30.4341 393.601 29.2041L392.132 30.5615C392.828 31.314 393.233 32.4199 393.222 34.0163L395.222 34.0305ZM393.605 29.2088C392.465 27.9594 390.915 27.3771 389.084 27.3771V29.3771C390.465 29.3771 391.436 29.7986 392.128 30.5569L393.605 29.2088ZM389.084 27.3771C387.857 27.3771 386.731 27.6423 385.734 28.2012L386.712 29.9458C387.371 29.5762 388.152 29.3771 389.084 29.3771V27.3771ZM385.728 28.2044C384.734 28.7706 383.963 29.5952 383.416 30.644L385.19 31.5683C385.572 30.8354 386.081 30.3049 386.718 29.9426L385.728 28.2044ZM383.414 30.6488C382.875 31.6966 382.621 32.9181 382.607 34.2768L384.607 34.297C384.618 33.1714 384.828 32.2724 385.193 31.5635L383.414 30.6488ZM417.75 49.7766L417.208 50.6169L417.215 50.6213L417.75 49.7766ZM413.534 44.7514L412.627 45.1718L412.63 45.178L413.534 44.7514ZM413.591 28.3207L414.49 28.7576L414.491 28.7556L413.591 28.3207ZM417.844 23.3707L418.369 24.2218L418.371 24.2207L417.844 23.3707ZM427.744 22.5426L427.289 23.4329L427.301 23.4391L427.744 22.5426ZM430.379 24.5753L429.604 25.2072L429.609 25.2137L429.615 25.2202L430.379 24.5753ZM431.922 26.9467L431.011 27.3583L431.277 27.9467H431.922V26.9467ZM432.167 26.9467V27.9467H433.167V26.9467H432.167ZM432.167 12.4545V11.4545H431.167V12.4545H432.167ZM440.166 12.4545H441.166V11.4545H440.166V12.4545ZM440.166 51V52H441.166V51H440.166ZM432.261 51H431.261V52H432.261V51ZM432.261 46.37H433.261V45.37H432.261V46.37ZM431.922 46.37V45.37H431.287L431.017 45.9456L431.922 46.37ZM430.323 48.7603L429.569 48.1026L429.569 48.1035L430.323 48.7603ZM427.669 50.6989L427.243 49.7943L427.239 49.7962L427.669 50.6989ZM429.532 44.0362L430.151 44.8214L430.153 44.8203L429.532 44.0362ZM431.603 41.0437L430.668 40.6865L430.665 40.6946L431.603 41.0437ZM431.621 32.0661L432.557 31.7139L431.621 32.0661ZM422.926 29.1676L422.305 28.3836L422.926 29.1676ZM420.875 41.006L419.933 41.3441L419.937 41.3551L420.875 41.006ZM422.926 44.0174L422.293 44.7918L422.299 44.7967L422.305 44.8014L422.926 44.0174ZM423.716 50.4705C421.702 50.4705 419.9 49.9555 418.286 48.932L417.215 50.6213C419.163 51.8563 421.339 52.4705 423.716 52.4705V50.4705ZM418.293 48.9364C416.704 47.9112 415.413 46.3917 414.439 44.3249L412.63 45.178C413.738 47.5279 415.258 49.3584 417.208 50.6168L418.293 48.9364ZM414.442 44.3311C413.49 42.2767 412.991 39.7066 412.991 36.5831H410.991C410.991 39.9089 411.521 42.7843 412.627 45.1718L414.442 44.3311ZM412.991 36.5831C412.991 33.3707 413.509 30.7776 414.49 28.7576L412.691 27.8838C411.539 30.2553 410.991 33.1705 410.991 36.5831H412.991ZM414.491 28.7556C415.49 26.6876 416.79 25.1965 418.369 24.2218L417.319 22.5197C415.361 23.7282 413.825 25.5371 412.69 27.8858L414.491 28.7556ZM418.371 24.2207C419.993 23.2158 421.761 22.7145 423.698 22.7145V20.7145C421.393 20.7145 419.259 21.3173 417.318 22.5207L418.371 24.2207ZM423.698 22.7145C425.209 22.7145 426.39 22.973 427.289 23.4329L428.2 21.6524C426.94 21.0081 425.424 20.7145 423.698 20.7145V22.7145ZM427.301 23.4391C428.284 23.9251 429.043 24.5187 429.604 25.2072L431.154 23.9433C430.386 23.0007 429.387 22.2392 428.187 21.6461L427.301 23.4391ZM429.615 25.2202C430.246 25.9682 430.705 26.6813 431.011 27.3583L432.834 26.5351C432.437 25.6563 431.867 24.7884 431.143 23.9304L429.615 25.2202ZM431.922 27.9467H432.167V25.9467H431.922V27.9467ZM433.167 26.9467V12.4545H431.167V26.9467H433.167ZM432.167 13.4545H440.166V11.4545H432.167V13.4545ZM439.166 12.4545V51H441.166V12.4545H439.166ZM440.166 50H432.261V52H440.166V50ZM433.261 51V46.37H431.261V51H433.261ZM432.261 45.37H431.922V47.37H432.261V45.37ZM431.017 45.9456C430.687 46.6504 430.209 47.37 429.569 48.1026L431.076 49.418C431.817 48.5697 432.405 47.6957 432.828 46.7945L431.017 45.9456ZM429.569 48.1035C428.996 48.7608 428.23 49.3289 427.243 49.7943L428.095 51.6034C429.291 51.0399 430.294 50.3156 431.077 49.4171L429.569 48.1035ZM427.239 49.7962C426.328 50.2303 425.167 50.4705 423.716 50.4705V52.4705C425.378 52.4705 426.852 52.1963 428.099 51.6015L427.239 49.7962ZM426.257 46.0902C427.742 46.0902 429.06 45.6823 430.151 44.8214L428.913 43.2511C428.223 43.7955 427.358 44.0902 426.257 44.0902V46.0902ZM430.153 44.8203C431.224 43.9722 432.011 42.8118 432.54 41.3928L430.665 40.6946C430.24 41.8353 429.647 42.6698 428.911 43.2522L430.153 44.8203ZM432.537 41.4008C433.079 39.9821 433.337 38.3567 433.337 36.5455H431.337C431.337 38.1722 431.105 39.5456 430.668 40.6865L432.537 41.4008ZM433.337 36.5455C433.337 34.7372 433.086 33.1195 432.557 31.7139L430.685 32.4182C431.11 33.5471 431.337 34.9157 431.337 36.5455H433.337ZM432.557 31.7139C432.027 30.3051 431.237 29.1593 430.158 28.3353L428.944 29.9246C429.672 30.4808 430.262 31.2925 430.685 32.4182L432.557 31.7139ZM430.158 28.3353C429.057 27.4941 427.738 27.0948 426.257 27.0948V29.0948C427.362 29.0948 428.238 29.3856 428.944 29.9246L430.158 28.3353ZM426.257 27.0948C424.749 27.0948 423.41 27.5088 422.305 28.3836L423.547 29.9517C424.249 29.396 425.131 29.0948 426.257 29.0948V27.0948ZM422.305 28.3836C421.234 29.2317 420.452 30.3869 419.936 31.7974L421.814 32.4853C422.225 31.3612 422.811 30.534 423.547 29.9517L422.305 28.3836ZM419.936 31.7974C419.423 33.1974 419.178 34.786 419.178 36.5455H421.178C421.178 34.9673 421.398 33.6198 421.814 32.4853L419.936 31.7974ZM419.178 36.5455C419.178 38.3171 419.423 39.922 419.933 41.3441L421.816 40.668C421.398 39.5053 421.178 38.1365 421.178 36.5455H419.178ZM419.937 41.3551C420.465 42.7699 421.241 43.9324 422.293 44.7918L423.559 43.243C422.829 42.6469 422.238 41.8018 421.812 40.6569L419.937 41.3551ZM422.305 44.8014C423.41 45.6762 424.749 46.0902 426.257 46.0902V44.0902C425.131 44.0902 424.249 43.789 423.547 43.2334L422.305 44.8014ZM454.576 50.5859L454.164 51.4971L454.17 51.5001L454.576 50.5859ZM451.15 47.7063L450.311 48.2496L450.317 48.2591L451.15 47.7063ZM450.793 38.8793L449.913 38.404L450.793 38.8793ZM453.202 36.2443L452.654 35.4075L453.202 36.2443ZM456.665 34.7386L456.413 33.7707L456.411 33.7713L456.665 34.7386ZM460.768 34.0234L460.864 35.0188L460.872 35.018L460.768 34.0234ZM464.833 33.5341L464.978 34.5236L464.99 34.5218L464.833 33.5341ZM467.073 32.8189L466.513 31.9903L467.073 32.8189ZM466.64 28.5465L465.979 29.2968L465.985 29.3022L466.64 28.5465ZM460.034 28.5277L460.626 29.3334L460.634 29.3277L460.034 28.5277ZM458.34 30.8991L458.259 31.8959L459.073 31.962L459.3 31.1772L458.34 30.8991ZM450.924 30.2969L449.947 30.0873L449.708 31.2014L450.843 31.2936L450.924 30.2969ZM453.145 25.7422L453.902 26.3954L453.906 26.3918L453.145 25.7422ZM457.418 22.7685L457.786 23.6983L457.789 23.6969L457.418 22.7685ZM468.127 22.2791L467.878 23.2478L467.88 23.2483L468.127 22.2791ZM472.06 24.0295L471.491 24.8517L471.495 24.8546L472.06 24.0295ZM474.789 27.0785L473.908 27.5505L473.91 27.5542L474.789 27.0785ZM475.787 51V52H476.787V51H475.787ZM468.183 51H467.183V52H468.183V51ZM468.183 46.9911H469.183V45.9911H468.183V46.9911ZM467.957 46.9911V45.9911H467.347L467.068 46.5341L467.957 46.9911ZM466.094 49.3814L466.751 50.1355L466.758 50.1295L466.094 49.3814ZM463.29 50.9812L463.616 51.9266L463.625 51.9232L463.29 50.9812ZM464.927 45.3161L465.384 46.2055L465.394 46.2004L464.927 45.3161ZM467.054 43.3963L466.212 42.8569L467.054 43.3963ZM467.826 37.5994H468.826V35.7567L467.281 36.761L467.826 37.5994ZM466.79 38.0511L467.073 39.0105L467.082 39.0079L467.09 39.0051L466.79 38.0511ZM465.341 38.4087L465.524 39.3919L465.535 39.3898L465.546 39.3875L465.341 38.4087ZM463.723 38.6911L463.861 39.6815L463.872 39.6799L463.883 39.6781L463.723 38.6911ZM462.255 38.8981L462.113 37.9081L462.109 37.9087L462.255 38.8981ZM459.789 39.5568L460.183 40.476L459.789 39.5568ZM458.152 40.7802L458.942 41.3928L458.949 41.3833L458.152 40.7802ZM458.754 45.1655L458.164 45.9731L458.171 45.9784L458.179 45.9835L458.754 45.1655ZM459.507 50.5458C457.779 50.5458 456.277 50.2464 454.981 49.6718L454.17 51.5001C455.761 52.2053 457.546 52.5458 459.507 52.5458V50.5458ZM454.988 49.6748C453.709 49.0964 452.716 48.2574 451.984 47.1535L450.317 48.2591C451.266 49.6898 452.557 50.7705 454.164 51.4971L454.988 49.6748ZM451.99 47.1631C451.29 46.0814 450.908 44.6885 450.908 42.9258H448.908C448.908 44.9774 449.354 46.7716 450.311 48.2496L451.99 47.1631ZM450.908 42.9258C450.908 41.4382 451.181 40.2635 451.672 39.3546L449.913 38.404C449.224 39.6783 448.908 41.2012 448.908 42.9258H450.908ZM451.672 39.3546C452.185 38.4059 452.875 37.6531 453.749 37.0811L452.654 35.4075C451.496 36.1656 450.58 37.1694 449.913 38.404L451.672 39.3546ZM453.749 37.0811C454.667 36.4808 455.72 36.0201 456.918 35.706L456.411 33.7713C455.025 34.1347 453.769 34.6778 452.654 35.4075L453.749 37.0811ZM456.916 35.7066C458.167 35.3818 459.482 35.1521 460.864 35.0188L460.672 33.0281C459.192 33.1708 457.773 33.4179 456.413 33.7707L456.916 35.7066ZM460.872 35.018C462.559 34.8417 463.93 34.6769 464.978 34.5236L464.688 32.5446C463.679 32.6924 462.339 32.8539 460.664 33.0289L460.872 35.018ZM464.99 34.5218C466.06 34.3521 466.983 34.0863 467.633 33.6475L466.513 31.9903C466.234 32.1788 465.664 32.3898 464.677 32.5464L464.99 34.5218ZM467.633 33.6475C468.402 33.1275 468.769 32.335 468.769 31.4261H466.769C466.769 31.7469 466.672 31.8829 466.513 31.9903L467.633 33.6475ZM468.769 31.4261V31.3132H466.769V31.4261H468.769ZM468.769 31.3132C468.769 29.8937 468.31 28.6707 467.295 27.7908L465.985 29.3022C466.475 29.7273 466.769 30.3487 466.769 31.3132H468.769ZM467.301 27.7963C466.318 26.93 464.995 26.5678 463.478 26.5678V28.5678C464.696 28.5678 465.481 28.8581 465.979 29.2967L467.301 27.7963ZM463.478 26.5678C461.894 26.5678 460.512 26.919 459.434 27.7277L460.634 29.3277C461.262 28.8566 462.176 28.5678 463.478 28.5678V26.5678ZM459.441 27.722C458.423 28.4706 457.721 29.4413 457.379 30.6211L459.3 31.1772C459.511 30.4498 459.938 29.8395 460.626 29.3333L459.441 27.722ZM458.421 29.9024L451.005 29.3002L450.843 31.2936L458.259 31.8959L458.421 29.9024ZM451.902 30.5064C452.246 28.9032 452.915 27.5402 453.902 26.3954L452.388 25.089C451.167 26.5038 450.356 28.1773 449.947 30.0873L451.902 30.5064ZM453.906 26.3918C454.893 25.2359 456.177 24.3347 457.786 23.6983L457.05 21.8386C455.17 22.5824 453.606 23.6638 452.385 25.0926L453.906 26.3918ZM457.789 23.6969C459.405 23.0507 461.307 22.7145 463.516 22.7145V20.7145C461.107 20.7145 458.944 21.0809 457.046 21.84L457.789 23.6969ZM463.516 22.7145C465.043 22.7145 466.496 22.8934 467.878 23.2478L468.375 21.3105C466.821 20.912 465.2 20.7145 463.516 20.7145V22.7145ZM467.88 23.2483C469.257 23.5983 470.457 24.1355 471.491 24.8517L472.63 23.2073C471.38 22.3425 469.958 21.7128 468.373 21.3099L467.88 23.2483ZM471.495 24.8546C472.516 25.5538 473.318 26.4486 473.908 27.5505L475.671 26.6065C474.931 25.224 473.913 24.0862 472.625 23.2044L471.495 24.8546ZM473.91 27.5542C474.48 28.6078 474.787 29.9109 474.787 31.5014H476.787C476.787 29.654 476.429 28.0084 475.669 26.6028L473.91 27.5542ZM474.787 31.5014V51H476.787V31.5014H474.787ZM475.787 50H468.183V52H475.787V50ZM469.183 51V46.9911H467.183V51H469.183ZM468.183 45.9911H467.957V47.9911H468.183V45.9911ZM467.068 46.5341C466.662 47.3247 466.118 48.0234 465.43 48.6333L466.758 50.1295C467.626 49.3592 468.325 48.4644 468.847 47.4482L467.068 46.5341ZM465.437 48.6273C464.765 49.2132 463.942 49.6871 462.954 50.0392L463.625 51.9232C464.82 51.4974 465.868 50.9047 466.751 50.1355L465.437 48.6273ZM462.964 50.0358C461.999 50.3686 460.852 50.5458 459.507 50.5458V52.5458C461.023 52.5458 462.398 52.3466 463.616 51.9266L462.964 50.0358ZM461.803 47.0124C463.116 47.0124 464.318 46.7533 465.384 46.2055L464.47 44.4266C463.729 44.8073 462.849 45.0124 461.803 45.0124V47.0124ZM465.394 46.2004C466.439 45.6489 467.282 44.8946 467.896 43.9357L466.212 42.8569C465.797 43.5041 465.222 44.0296 464.46 44.4317L465.394 46.2004ZM467.896 43.9357C468.52 42.961 468.826 41.8617 468.826 40.6673H466.826C466.826 41.5055 466.616 42.2256 466.212 42.8569L467.896 43.9357ZM468.826 40.6673V37.5994H466.826V40.6673H468.826ZM467.281 36.761C467.135 36.8556 466.884 36.9734 466.491 37.0971L467.09 39.0051C467.575 38.8528 468.014 38.6695 468.371 38.4379L467.281 36.761ZM466.508 37.0918C466.112 37.2082 465.656 37.3212 465.136 37.4299L465.546 39.3875C466.106 39.2704 466.615 39.145 467.073 39.0105L466.508 37.0918ZM465.158 37.4256C464.626 37.5246 464.094 37.6174 463.562 37.704L463.883 39.6781C464.43 39.589 464.977 39.4936 465.524 39.3919L465.158 37.4256ZM463.584 37.7006C463.044 37.776 462.554 37.8452 462.113 37.9081L462.396 39.888C462.834 39.8255 463.322 39.7566 463.861 39.6815L463.584 37.7006ZM462.109 37.9087C461.103 38.0563 460.194 38.2953 459.395 38.6377L460.183 40.476C460.79 40.216 461.524 40.0159 462.4 39.8875L462.109 37.9087ZM459.395 38.6377C458.562 38.9945 457.866 39.5003 457.354 40.1771L458.949 41.3833C459.216 41.0312 459.61 40.7214 460.183 40.476L459.395 38.6377ZM457.361 40.1676C456.812 40.8758 456.568 41.7303 456.568 42.6623H458.568C458.568 42.0886 458.713 41.6884 458.942 41.3928L457.361 40.1676ZM456.568 42.6623C456.568 44.0307 457.083 45.1839 458.164 45.9731L459.344 44.3579C458.844 43.9927 458.568 43.4772 458.568 42.6623H456.568ZM458.179 45.9835C459.188 46.6935 460.42 47.0124 461.803 47.0124V45.0124C460.727 45.0124 459.925 44.7667 459.329 44.3475L458.179 45.9835ZM486.512 51H485.512V52H486.512V51ZM486.512 22.0909V21.0909H485.512V22.0909H486.512ZM494.285 22.0909H495.285V21.0909H494.285V22.0909ZM494.285 27.1349H493.285V28.1349H494.285V27.1349ZM494.586 27.1349V28.1349H495.335L495.546 27.4167L494.586 27.1349ZM497.24 23.0696L497.834 23.8745L497.839 23.8706L497.24 23.0696ZM502.83 21.7521L502.938 20.7579V20.7579L502.83 21.7521ZM504.053 21.9592H505.053V21.1784L504.296 20.989L504.053 21.9592ZM504.053 29.0735L503.766 30.0313L505.053 30.4175V29.0735H504.053ZM497.504 29.4123L497.984 30.2893L497.988 30.287L497.504 29.4123ZM495.32 31.5202L494.462 31.0075L494.457 31.0164L495.32 31.5202ZM494.53 51V52H495.53V51H494.53ZM487.512 51V22.0909H485.512V51H487.512ZM486.512 23.0909H494.285V21.0909H486.512V23.0909ZM493.285 22.0909V27.1349H495.285V22.0909H493.285ZM494.285 28.1349H494.586V26.1349H494.285V28.1349ZM495.546 27.4167C496.025 25.7866 496.802 24.6351 497.834 23.8745L496.647 22.2648C495.194 23.336 494.202 24.8948 493.627 26.8531L495.546 27.4167ZM497.839 23.8706C498.9 23.0772 500.119 22.6768 501.531 22.6768V20.6768C499.707 20.6768 498.064 21.205 496.642 22.2686L497.839 23.8706ZM501.531 22.6768C501.892 22.6768 502.288 22.6994 502.723 22.7463L502.938 20.7579C502.443 20.7045 501.974 20.6768 501.531 20.6768V22.6768ZM502.723 22.7463C503.154 22.7929 503.515 22.8552 503.811 22.9293L504.296 20.989C503.89 20.8874 503.435 20.8117 502.938 20.7579L502.723 22.7463ZM503.053 21.9592V29.0735H505.053V21.9592H503.053ZM504.341 28.1157C503.89 27.9804 503.309 27.8717 502.622 27.781L502.36 29.7638C503.004 29.8487 503.464 29.9408 503.766 30.0313L504.341 28.1157ZM502.622 27.781C501.923 27.6886 501.27 27.6406 500.666 27.6406V29.6406C501.166 29.6406 501.73 29.6805 502.36 29.7638L502.622 27.781ZM500.666 27.6406C499.336 27.6406 498.112 27.9321 497.019 28.5376L497.988 30.287C498.753 29.8636 499.637 29.6406 500.666 29.6406V27.6406ZM497.023 28.5353C495.95 29.1235 495.092 29.9524 494.462 31.0075L496.179 32.033C496.628 31.2813 497.226 30.7049 497.984 30.2893L497.023 28.5353ZM494.457 31.0164C493.83 32.0915 493.53 33.3111 493.53 34.6445H495.53C495.53 33.6191 495.757 32.7558 496.184 32.0241L494.457 31.0164ZM493.53 34.6445V51H495.53V34.6445H493.53ZM494.53 50H486.512V52H494.53V50ZM516.045 49.7766L515.502 50.6169L515.509 50.6213L516.045 49.7766ZM511.829 44.7514L510.921 45.1718L510.924 45.178L511.829 44.7514ZM511.885 28.3207L512.785 28.7576L512.786 28.7556L511.885 28.3207ZM516.139 23.3707L516.664 24.2218L516.665 24.2207L516.139 23.3707ZM526.038 22.5426L525.583 23.4329L525.595 23.4391L526.038 22.5426ZM528.673 24.5753L527.898 25.2072L527.904 25.2137L527.909 25.2202L528.673 24.5753ZM530.217 26.9467L529.305 27.3583L529.571 27.9467H530.217V26.9467ZM530.461 26.9467V27.9467H531.461V26.9467H530.461ZM530.461 12.4545V11.4545H529.461V12.4545H530.461ZM538.46 12.4545H539.46V11.4545H538.46V12.4545ZM538.46 51V52H539.46V51H538.46ZM530.556 51H529.556V52H530.556V51ZM530.556 46.37H531.556V45.37H530.556V46.37ZM530.217 46.37V45.37H529.581L529.311 45.9456L530.217 46.37ZM528.617 48.7603L527.864 48.1026L527.863 48.1035L528.617 48.7603ZM525.963 50.6989L525.537 49.7943L525.533 49.7962L525.963 50.6989ZM527.826 44.0362L528.446 44.8214L528.447 44.8203L527.826 44.0362ZM529.897 41.0437L528.963 40.6865L528.96 40.6946L529.897 41.0437ZM529.916 32.0661L530.852 31.7139L529.916 32.0661ZM521.22 29.1676L520.6 28.3836L521.22 29.1676ZM519.169 41.006L518.228 41.3441L518.232 41.3551L519.169 41.006ZM521.22 44.0174L520.588 44.7918L520.594 44.7967L520.6 44.8014L521.22 44.0174ZM522.011 50.4705C519.996 50.4705 518.195 49.9555 516.58 48.932L515.509 50.6213C517.458 51.8563 519.634 52.4705 522.011 52.4705V50.4705ZM516.587 48.9364C514.998 47.9112 513.708 46.3917 512.733 44.3249L510.924 45.178C512.032 47.5279 513.552 49.3584 515.502 50.6168L516.587 48.9364ZM512.736 44.3311C511.784 42.2767 511.285 39.7066 511.285 36.5831H509.285C509.285 39.9089 509.815 42.7843 510.921 45.1718L512.736 44.3311ZM511.285 36.5831C511.285 33.3707 511.803 30.7776 512.785 28.7576L510.986 27.8838C509.834 30.2553 509.285 33.1705 509.285 36.5831H511.285ZM512.786 28.7556C513.784 26.6876 515.084 25.1965 516.664 24.2218L515.614 22.5197C513.655 23.7282 512.119 25.5371 510.985 27.8858L512.786 28.7556ZM516.665 24.2207C518.287 23.2158 520.055 22.7145 521.992 22.7145V20.7145C519.688 20.7145 517.554 21.3173 515.612 22.5207L516.665 24.2207ZM521.992 22.7145C523.503 22.7145 524.684 22.973 525.583 23.4329L526.494 21.6524C525.235 21.0081 523.718 20.7145 521.992 20.7145V22.7145ZM525.595 23.4391C526.579 23.9251 527.337 24.5187 527.898 25.2072L529.448 23.9433C528.68 23.0007 527.681 22.2392 526.482 21.6461L525.595 23.4391ZM527.909 25.2202C528.54 25.9682 529 26.6813 529.305 27.3583L531.128 26.5351C530.731 25.6563 530.162 24.7884 529.438 23.9304L527.909 25.2202ZM530.217 27.9467H530.461V25.9467H530.217V27.9467ZM531.461 26.9467V12.4545H529.461V26.9467H531.461ZM530.461 13.4545H538.46V11.4545H530.461V13.4545ZM537.46 12.4545V51H539.46V12.4545H537.46ZM538.46 50H530.556V52H538.46V50ZM531.556 51V46.37H529.556V51H531.556ZM530.556 45.37H530.217V47.37H530.556V45.37ZM529.311 45.9456C528.981 46.6504 528.503 47.37 527.864 48.1026L529.37 49.418C530.111 48.5697 530.7 47.6957 531.122 46.7945L529.311 45.9456ZM527.863 48.1035C527.29 48.7608 526.524 49.3289 525.537 49.7943L526.389 51.6034C527.585 51.0399 528.588 50.3156 529.371 49.4171L527.863 48.1035ZM525.533 49.7962C524.622 50.2303 523.461 50.4705 522.011 50.4705V52.4705C523.672 52.4705 525.146 52.1963 526.394 51.6015L525.533 49.7962ZM524.552 46.0902C526.036 46.0902 527.354 45.6823 528.446 44.8214L527.207 43.2511C526.517 43.7955 525.652 44.0902 524.552 44.0902V46.0902ZM528.447 44.8203C529.518 43.9722 530.305 42.8118 530.834 41.3928L528.96 40.6946C528.535 41.8353 527.941 42.6698 527.206 43.2522L528.447 44.8203ZM530.831 41.4008C531.373 39.9821 531.631 38.3567 531.631 36.5455H529.631C529.631 38.1722 529.399 39.5456 528.963 40.6865L530.831 41.4008ZM531.631 36.5455C531.631 34.7372 531.38 33.1195 530.852 31.7139L528.98 32.4182C529.404 33.5471 529.631 34.9157 529.631 36.5455H531.631ZM530.852 31.7139C530.322 30.3051 529.531 29.1593 528.452 28.3353L527.238 29.9246C527.966 30.4808 528.556 31.2925 528.98 32.4182L530.852 31.7139ZM528.452 28.3353C527.351 27.4941 526.032 27.0948 524.552 27.0948V29.0948C525.656 29.0948 526.533 29.3856 527.238 29.9246L528.452 28.3353ZM524.552 27.0948C523.043 27.0948 521.705 27.5088 520.6 28.3836L521.841 29.9517C522.543 29.396 523.426 29.0948 524.552 29.0948V27.0948ZM520.6 28.3836C519.528 29.2317 518.747 30.3869 518.23 31.7974L520.108 32.4853C520.52 31.3612 521.105 30.534 521.841 29.9517L520.6 28.3836ZM518.23 31.7974C517.717 33.1974 517.472 34.786 517.472 36.5455H519.472C519.472 34.9673 519.692 33.6198 520.108 32.4853L518.23 31.7974ZM517.472 36.5455C517.472 38.3171 517.717 39.922 518.228 41.3441L520.11 40.668C519.692 39.5053 519.472 38.1365 519.472 36.5455H517.472ZM518.232 41.3551C518.759 42.7699 519.536 43.9324 520.588 44.7918L521.853 43.243C521.123 42.6469 520.532 41.8018 520.106 40.6569L518.232 41.3551ZM520.6 44.8014C521.705 45.6762 523.043 46.0902 524.552 46.0902V44.0902C523.426 44.0902 522.543 43.789 521.841 43.2334L520.6 44.8014Z" fill="black"/>
</g>
<path d="M120.939 86H117.348V74.3636H121.098C122.227 74.3636 123.193 74.5966 123.996 75.0625C124.799 75.5246 125.414 76.1894 125.842 77.0568C126.27 77.9205 126.484 78.9545 126.484 80.1591C126.484 81.3712 126.268 82.4148 125.836 83.2898C125.405 84.161 124.776 84.8314 123.95 85.3011C123.124 85.767 122.121 86 120.939 86ZM118.757 84.75H120.848C121.81 84.75 122.607 84.5644 123.24 84.1932C123.872 83.822 124.344 83.2936 124.655 82.608C124.965 81.9223 125.121 81.1061 125.121 80.1591C125.121 79.2197 124.967 78.411 124.66 77.733C124.354 77.0511 123.895 76.5284 123.285 76.1648C122.675 75.7973 121.916 75.6136 121.007 75.6136H118.757V84.75ZM140.026 80.1818C140.026 81.4091 139.804 82.4697 139.361 83.3636C138.918 84.2576 138.31 84.947 137.537 85.4318C136.765 85.9167 135.882 86.1591 134.89 86.1591C133.897 86.1591 133.015 85.9167 132.242 85.4318C131.469 84.947 130.861 84.2576 130.418 83.3636C129.975 82.4697 129.753 81.4091 129.753 80.1818C129.753 78.9545 129.975 77.8939 130.418 77C130.861 76.1061 131.469 75.4167 132.242 74.9318C133.015 74.447 133.897 74.2045 134.89 74.2045C135.882 74.2045 136.765 74.447 137.537 74.9318C138.31 75.4167 138.918 76.1061 139.361 77C139.804 77.8939 140.026 78.9545 140.026 80.1818ZM138.662 80.1818C138.662 79.1742 138.494 78.3239 138.157 77.6307C137.823 76.9375 137.371 76.4129 136.799 76.0568C136.231 75.7008 135.594 75.5227 134.89 75.5227C134.185 75.5227 133.547 75.7008 132.975 76.0568C132.407 76.4129 131.954 76.9375 131.617 77.6307C131.284 78.3239 131.117 79.1742 131.117 80.1818C131.117 81.1894 131.284 82.0398 131.617 82.733C131.954 83.4261 132.407 83.9508 132.975 84.3068C133.547 84.6629 134.185 84.8409 134.89 84.8409C135.594 84.8409 136.231 84.6629 136.799 84.3068C137.371 83.9508 137.823 83.4261 138.157 82.733C138.494 82.0398 138.662 81.1894 138.662 80.1818ZM143.755 74.3636H145.437L149.392 84.0227H149.528L153.483 74.3636H155.164V86H153.846V77.1591H153.733L150.096 86H148.824L145.187 77.1591H145.074V86H143.755V74.3636ZM177.433 77.2727C177.365 76.697 177.089 76.25 176.604 75.9318C176.119 75.6136 175.524 75.4545 174.82 75.4545C174.305 75.4545 173.854 75.5379 173.467 75.7045C173.085 75.8712 172.786 76.1004 172.57 76.392C172.358 76.6837 172.252 77.0152 172.252 77.3864C172.252 77.697 172.325 77.964 172.473 78.1875C172.625 78.4072 172.818 78.5909 173.053 78.7386C173.288 78.8826 173.534 79.0019 173.791 79.0966C174.049 79.1875 174.286 79.2614 174.502 79.3182L175.683 79.6364C175.986 79.7159 176.324 79.8258 176.695 79.9659C177.07 80.1061 177.428 80.2973 177.769 80.5398C178.113 80.7784 178.397 81.0852 178.621 81.4602C178.844 81.8352 178.956 82.2955 178.956 82.8409C178.956 83.4697 178.791 84.0379 178.462 84.5455C178.136 85.053 177.659 85.4564 177.03 85.7557C176.405 86.0549 175.645 86.2045 174.752 86.2045C173.918 86.2045 173.197 86.0701 172.587 85.8011C171.981 85.5322 171.503 85.1572 171.155 84.6761C170.81 84.1951 170.615 83.6364 170.57 83H172.024C172.062 83.4394 172.21 83.803 172.467 84.0909C172.729 84.375 173.058 84.5871 173.456 84.7273C173.858 84.8636 174.289 84.9318 174.752 84.9318C175.289 84.9318 175.772 84.8447 176.2 84.6705C176.628 84.4924 176.967 84.2462 177.217 83.9318C177.467 83.6136 177.592 83.2424 177.592 82.8182C177.592 82.4318 177.484 82.1174 177.269 81.875C177.053 81.6326 176.769 81.4356 176.416 81.2841C176.064 81.1326 175.683 81 175.274 80.8864L173.842 80.4773C172.933 80.2159 172.214 79.8428 171.683 79.358C171.153 78.8731 170.888 78.2386 170.888 77.4545C170.888 76.803 171.064 76.2348 171.416 75.75C171.772 75.2614 172.25 74.8826 172.848 74.6136C173.45 74.3409 174.123 74.2045 174.865 74.2045C175.615 74.2045 176.282 74.339 176.865 74.608C177.449 74.8731 177.911 75.2367 178.252 75.6989C178.596 76.161 178.778 76.6856 178.797 77.2727H177.433ZM186.246 77.2727V78.4091H181.724V77.2727H186.246ZM183.042 75.1818H184.383V83.5C184.383 83.8788 184.438 84.1629 184.548 84.3523C184.661 84.5379 184.805 84.6629 184.979 84.7273C185.157 84.7879 185.345 84.8182 185.542 84.8182C185.69 84.8182 185.811 84.8106 185.906 84.7955C186 84.7765 186.076 84.7614 186.133 84.75L186.406 85.9545C186.315 85.9886 186.188 86.0227 186.025 86.0568C185.862 86.0947 185.656 86.1136 185.406 86.1136C185.027 86.1136 184.656 86.0322 184.292 85.8693C183.932 85.7064 183.633 85.4583 183.394 85.125C183.159 84.7917 183.042 84.3712 183.042 83.8636V75.1818ZM192.192 86.2045C191.639 86.2045 191.137 86.1004 190.686 85.892C190.235 85.6799 189.877 85.375 189.612 84.9773C189.347 84.5758 189.214 84.0909 189.214 83.5227C189.214 83.0227 189.313 82.6174 189.51 82.3068C189.707 81.9924 189.97 81.7462 190.3 81.5682C190.629 81.3902 190.993 81.2576 191.391 81.1705C191.792 81.0795 192.195 81.0076 192.601 80.9545C193.131 80.8864 193.561 80.8352 193.891 80.8011C194.224 80.7633 194.466 80.7008 194.618 80.6136C194.773 80.5265 194.851 80.375 194.851 80.1591V80.1136C194.851 79.553 194.697 79.1174 194.391 78.8068C194.088 78.4962 193.627 78.3409 193.01 78.3409C192.37 78.3409 191.868 78.4811 191.504 78.7614C191.141 79.0417 190.885 79.3409 190.737 79.6591L189.464 79.2045C189.692 78.6742 189.995 78.2614 190.374 77.9659C190.756 77.6667 191.173 77.4583 191.624 77.3409C192.078 77.2197 192.525 77.1591 192.964 77.1591C193.245 77.1591 193.567 77.1932 193.93 77.2614C194.298 77.3258 194.652 77.4602 194.993 77.6648C195.338 77.8693 195.624 78.178 195.851 78.5909C196.078 79.0038 196.192 79.5568 196.192 80.25V86H194.851V84.8182H194.783C194.692 85.0076 194.54 85.2102 194.328 85.4261C194.116 85.642 193.834 85.8258 193.481 85.9773C193.129 86.1288 192.699 86.2045 192.192 86.2045ZM192.396 85C192.927 85 193.374 84.8958 193.737 84.6875C194.105 84.4792 194.381 84.2102 194.567 83.8807C194.756 83.5511 194.851 83.2045 194.851 82.8409V81.6136C194.794 81.6818 194.669 81.7443 194.476 81.8011C194.286 81.8542 194.067 81.9015 193.817 81.9432C193.57 81.9811 193.33 82.0152 193.095 82.0455C192.864 82.072 192.677 82.0947 192.533 82.1136C192.184 82.1591 191.858 82.233 191.555 82.3352C191.256 82.4337 191.014 82.5833 190.828 82.7841C190.646 82.9811 190.555 83.25 190.555 83.5909C190.555 84.0568 190.728 84.4091 191.072 84.6477C191.421 84.8826 191.862 85 192.396 85ZM201.34 80.75V86H199.999V77.2727H201.295V78.6364H201.408C201.613 78.1932 201.923 77.8371 202.34 77.5682C202.757 77.2955 203.295 77.1591 203.954 77.1591C204.545 77.1591 205.062 77.2803 205.505 77.5227C205.948 77.7614 206.293 78.125 206.539 78.6136C206.785 79.0985 206.908 79.7121 206.908 80.4545V86H205.567V80.5455C205.567 79.8598 205.389 79.3258 205.033 78.9432C204.677 78.5568 204.189 78.3636 203.567 78.3636C203.139 78.3636 202.757 78.4564 202.42 78.642C202.086 78.8277 201.823 79.0985 201.63 79.4545C201.437 79.8106 201.34 80.2424 201.34 80.75ZM214.014 86.1818C213.287 86.1818 212.645 85.9981 212.088 85.6307C211.531 85.2595 211.095 84.7367 210.781 84.0625C210.467 83.3845 210.309 82.5833 210.309 81.6591C210.309 80.7424 210.467 79.947 210.781 79.2727C211.095 78.5985 211.533 78.0777 212.094 77.7102C212.654 77.3428 213.302 77.1591 214.037 77.1591C214.605 77.1591 215.054 77.2538 215.383 77.4432C215.717 77.6288 215.97 77.8409 216.145 78.0795C216.323 78.3144 216.461 78.5076 216.559 78.6591H216.673V74.3636H218.014V86H216.719V84.6591H216.559C216.461 84.8182 216.321 85.0189 216.139 85.2614C215.957 85.5 215.698 85.714 215.361 85.9034C215.023 86.089 214.575 86.1818 214.014 86.1818ZM214.196 84.9773C214.734 84.9773 215.188 84.8371 215.559 84.5568C215.931 84.2727 216.213 83.8807 216.406 83.3807C216.599 82.8769 216.696 82.2955 216.696 81.6364C216.696 80.9848 216.601 80.4148 216.412 79.9261C216.222 79.4337 215.942 79.0511 215.571 78.7784C215.2 78.5019 214.741 78.3636 214.196 78.3636C213.628 78.3636 213.154 78.5095 212.775 78.8011C212.4 79.089 212.118 79.4811 211.929 79.9773C211.743 80.4697 211.65 81.0227 211.65 81.6364C211.65 82.2576 211.745 82.822 211.934 83.3295C212.128 83.8333 212.412 84.2348 212.787 84.5341C213.165 84.8295 213.635 84.9773 214.196 84.9773ZM224.584 86.2045C224.031 86.2045 223.529 86.1004 223.079 85.892C222.628 85.6799 222.27 85.375 222.005 84.9773C221.74 84.5758 221.607 84.0909 221.607 83.5227C221.607 83.0227 221.705 82.6174 221.902 82.3068C222.099 81.9924 222.363 81.7462 222.692 81.5682C223.022 81.3902 223.385 81.2576 223.783 81.1705C224.185 81.0795 224.588 81.0076 224.993 80.9545C225.524 80.8864 225.954 80.8352 226.283 80.8011C226.616 80.7633 226.859 80.7008 227.01 80.6136C227.166 80.5265 227.243 80.375 227.243 80.1591V80.1136C227.243 79.553 227.09 79.1174 226.783 78.8068C226.48 78.4962 226.02 78.3409 225.402 78.3409C224.762 78.3409 224.26 78.4811 223.897 78.7614C223.533 79.0417 223.277 79.3409 223.13 79.6591L221.857 79.2045C222.084 78.6742 222.387 78.2614 222.766 77.9659C223.149 77.6667 223.565 77.4583 224.016 77.3409C224.471 77.2197 224.918 77.1591 225.357 77.1591C225.637 77.1591 225.959 77.1932 226.323 77.2614C226.69 77.3258 227.044 77.4602 227.385 77.6648C227.73 77.8693 228.016 78.178 228.243 78.5909C228.471 79.0038 228.584 79.5568 228.584 80.25V86H227.243V84.8182H227.175C227.084 85.0076 226.933 85.2102 226.721 85.4261C226.508 85.642 226.226 85.8258 225.874 85.9773C225.522 86.1288 225.092 86.2045 224.584 86.2045ZM224.789 85C225.319 85 225.766 84.8958 226.13 84.6875C226.497 84.4792 226.774 84.2102 226.959 83.8807C227.149 83.5511 227.243 83.2045 227.243 82.8409V81.6136C227.186 81.6818 227.061 81.7443 226.868 81.8011C226.679 81.8542 226.459 81.9015 226.209 81.9432C225.963 81.9811 225.722 82.0152 225.488 82.0455C225.257 82.072 225.069 82.0947 224.925 82.1136C224.577 82.1591 224.251 82.233 223.948 82.3352C223.649 82.4337 223.406 82.5833 223.221 82.7841C223.039 82.9811 222.948 83.25 222.948 83.5909C222.948 84.0568 223.12 84.4091 223.465 84.6477C223.813 84.8826 224.255 85 224.789 85ZM232.392 86V77.2727H233.687V78.5909H233.778C233.937 78.1591 234.225 77.8087 234.642 77.5398C235.058 77.2708 235.528 77.1364 236.051 77.1364C236.149 77.1364 236.272 77.1383 236.42 77.142C236.568 77.1458 236.68 77.1515 236.755 77.1591V78.5227C236.71 78.5114 236.606 78.4943 236.443 78.4716C236.284 78.4451 236.115 78.4318 235.937 78.4318C235.513 78.4318 235.134 78.5208 234.801 78.6989C234.471 78.8731 234.21 79.1155 234.017 79.4261C233.827 79.733 233.733 80.0833 233.733 80.4773V86H232.392ZM242.735 86.1818C242.007 86.1818 241.365 85.9981 240.808 85.6307C240.252 85.2595 239.816 84.7367 239.502 84.0625C239.187 83.3845 239.03 82.5833 239.03 81.6591C239.03 80.7424 239.187 79.947 239.502 79.2727C239.816 78.5985 240.254 78.0777 240.814 77.7102C241.375 77.3428 242.022 77.1591 242.757 77.1591C243.326 77.1591 243.774 77.2538 244.104 77.4432C244.437 77.6288 244.691 77.8409 244.865 78.0795C245.043 78.3144 245.182 78.5076 245.28 78.6591H245.394V74.3636H246.735V86H245.439V84.6591H245.28C245.182 84.8182 245.041 85.0189 244.86 85.2614C244.678 85.5 244.418 85.714 244.081 85.9034C243.744 86.089 243.295 86.1818 242.735 86.1818ZM242.916 84.9773C243.454 84.9773 243.909 84.8371 244.28 84.5568C244.651 84.2727 244.933 83.8807 245.127 83.3807C245.32 82.8769 245.416 82.2955 245.416 81.6364C245.416 80.9848 245.322 80.4148 245.132 79.9261C244.943 79.4337 244.663 79.0511 244.291 78.7784C243.92 78.5019 243.462 78.3636 242.916 78.3636C242.348 78.3636 241.875 78.5095 241.496 78.8011C241.121 79.089 240.839 79.4811 240.649 79.9773C240.464 80.4697 240.371 81.0227 240.371 81.6364C240.371 82.2576 240.466 82.822 240.655 83.3295C240.848 83.8333 241.132 84.2348 241.507 84.5341C241.886 84.8295 242.356 84.9773 242.916 84.9773ZM269.002 77.2727C268.934 76.697 268.657 76.25 268.173 75.9318C267.688 75.6136 267.093 75.4545 266.388 75.4545C265.873 75.4545 265.423 75.5379 265.036 75.7045C264.654 75.8712 264.354 76.1004 264.138 76.392C263.926 76.6837 263.82 77.0152 263.82 77.3864C263.82 77.697 263.894 77.964 264.042 78.1875C264.193 78.4072 264.387 78.5909 264.621 78.7386C264.856 78.8826 265.102 79.0019 265.36 79.0966C265.618 79.1875 265.854 79.2614 266.07 79.3182L267.252 79.6364C267.555 79.7159 267.892 79.8258 268.263 79.9659C268.638 80.1061 268.996 80.2973 269.337 80.5398C269.682 80.7784 269.966 81.0852 270.19 81.4602C270.413 81.8352 270.525 82.2955 270.525 82.8409C270.525 83.4697 270.36 84.0379 270.031 84.5455C269.705 85.053 269.227 85.4564 268.599 85.7557C267.974 86.0549 267.214 86.2045 266.32 86.2045C265.487 86.2045 264.765 86.0701 264.156 85.8011C263.549 85.5322 263.072 85.1572 262.724 84.6761C262.379 84.1951 262.184 83.6364 262.138 83H263.593C263.631 83.4394 263.779 83.803 264.036 84.0909C264.298 84.375 264.627 84.5871 265.025 84.7273C265.426 84.8636 265.858 84.9318 266.32 84.9318C266.858 84.9318 267.341 84.8447 267.769 84.6705C268.197 84.4924 268.536 84.2462 268.786 83.9318C269.036 83.6136 269.161 83.2424 269.161 82.8182C269.161 82.4318 269.053 82.1174 268.837 81.875C268.621 81.6326 268.337 81.4356 267.985 81.2841C267.633 81.1326 267.252 81 266.843 80.8864L265.411 80.4773C264.502 80.2159 263.782 79.8428 263.252 79.358C262.722 78.8731 262.457 78.2386 262.457 77.4545C262.457 76.803 262.633 76.2348 262.985 75.75C263.341 75.2614 263.818 74.8826 264.417 74.6136C265.019 74.3409 265.691 74.2045 266.434 74.2045C267.184 74.2045 267.851 74.339 268.434 74.608C269.017 74.8731 269.479 75.2367 269.82 75.6989C270.165 76.161 270.347 76.6856 270.366 77.2727H269.002ZM274.02 86V77.2727H275.361V86H274.02ZM274.702 75.8182C274.44 75.8182 274.215 75.7292 274.025 75.5511C273.84 75.3731 273.747 75.1591 273.747 74.9091C273.747 74.6591 273.84 74.4451 274.025 74.267C274.215 74.089 274.44 74 274.702 74C274.963 74 275.186 74.089 275.372 74.267C275.561 74.4451 275.656 74.6591 275.656 74.9091C275.656 75.1591 275.561 75.3731 275.372 75.5511C275.186 75.7292 274.963 75.8182 274.702 75.8182ZM279.177 86V77.2727H280.472V78.6364H280.586C280.768 78.1705 281.061 77.8087 281.466 77.5511C281.872 77.2898 282.358 77.1591 282.927 77.1591C283.502 77.1591 283.982 77.2898 284.364 77.5511C284.751 77.8087 285.052 78.1705 285.268 78.6364H285.358C285.582 78.1856 285.917 77.8277 286.364 77.5625C286.811 77.2936 287.347 77.1591 287.972 77.1591C288.752 77.1591 289.391 77.4034 289.887 77.892C290.383 78.3769 290.631 79.1326 290.631 80.1591V86H289.29V80.1591C289.29 79.5152 289.114 79.0549 288.762 78.7784C288.41 78.5019 287.995 78.3636 287.518 78.3636C286.904 78.3636 286.429 78.5492 286.091 78.9205C285.754 79.2879 285.586 79.7538 285.586 80.3182V86H284.222V80.0227C284.222 79.5265 284.061 79.1269 283.739 78.8239C283.417 78.517 283.002 78.3636 282.495 78.3636C282.146 78.3636 281.821 78.4564 281.518 78.642C281.218 78.8277 280.976 79.0852 280.79 79.4148C280.608 79.7405 280.518 80.1174 280.518 80.5455V86H279.177ZM294.443 89.2727V77.2727H295.738V78.6591H295.897C295.996 78.5076 296.132 78.3144 296.307 78.0795C296.485 77.8409 296.738 77.6288 297.068 77.4432C297.401 77.2538 297.852 77.1591 298.42 77.1591C299.155 77.1591 299.803 77.3428 300.363 77.7102C300.924 78.0777 301.361 78.5985 301.676 79.2727C301.99 79.947 302.147 80.7424 302.147 81.6591C302.147 82.5833 301.99 83.3845 301.676 84.0625C301.361 84.7367 300.926 85.2595 300.369 85.6307C299.812 85.9981 299.17 86.1818 298.443 86.1818C297.882 86.1818 297.433 86.089 297.096 85.9034C296.759 85.714 296.5 85.5 296.318 85.2614C296.136 85.0189 295.996 84.8182 295.897 84.6591H295.784V89.2727H294.443ZM295.761 81.6364C295.761 82.2955 295.858 82.8769 296.051 83.3807C296.244 83.8807 296.526 84.2727 296.897 84.5568C297.269 84.8371 297.723 84.9773 298.261 84.9773C298.822 84.9773 299.289 84.8295 299.664 84.5341C300.043 84.2348 300.327 83.8333 300.517 83.3295C300.71 82.822 300.807 82.2576 300.807 81.6364C300.807 81.0227 300.712 80.4697 300.522 79.9773C300.337 79.4811 300.055 79.089 299.676 78.8011C299.301 78.5095 298.829 78.3636 298.261 78.3636C297.716 78.3636 297.257 78.5019 296.886 78.7784C296.515 79.0511 296.235 79.4337 296.045 79.9261C295.856 80.4148 295.761 80.9848 295.761 81.6364ZM306.894 74.3636V86H305.553V74.3636H306.894ZM310.71 86V77.2727H312.051V86H310.71ZM311.392 75.8182C311.13 75.8182 310.905 75.7292 310.715 75.5511C310.53 75.3731 310.437 75.1591 310.437 74.9091C310.437 74.6591 310.53 74.4451 310.715 74.267C310.905 74.089 311.13 74 311.392 74C311.653 74 311.876 74.089 312.062 74.267C312.251 74.4451 312.346 74.6591 312.346 74.9091C312.346 75.1591 312.251 75.3731 312.062 75.5511C311.876 75.7292 311.653 75.8182 311.392 75.8182ZM319.753 77.2727V78.4091H315.048V77.2727H319.753ZM316.458 86V76.0682C316.458 75.5682 316.575 75.1515 316.81 74.8182C317.045 74.4848 317.35 74.2348 317.725 74.0682C318.1 73.9015 318.495 73.8182 318.912 73.8182C319.242 73.8182 319.511 73.8447 319.719 73.8977C319.927 73.9508 320.083 74 320.185 74.0455L319.798 75.2045C319.73 75.1818 319.636 75.1534 319.514 75.1193C319.397 75.0852 319.242 75.0682 319.048 75.0682C318.605 75.0682 318.285 75.1799 318.088 75.4034C317.895 75.6269 317.798 75.9545 317.798 76.3864V86H316.458ZM322.992 86V77.2727H324.333V86H322.992ZM323.674 75.8182C323.413 75.8182 323.187 75.7292 322.998 75.5511C322.812 75.3731 322.72 75.1591 322.72 74.9091C322.72 74.6591 322.812 74.4451 322.998 74.267C323.187 74.089 323.413 74 323.674 74C323.935 74 324.159 74.089 324.345 74.267C324.534 74.4451 324.629 74.6591 324.629 74.9091C324.629 75.1591 324.534 75.3731 324.345 75.5511C324.159 75.7292 323.935 75.8182 323.674 75.8182ZM331.808 86.1818C330.967 86.1818 330.242 85.9962 329.632 85.625C329.026 85.25 328.558 84.7273 328.229 84.0568C327.903 83.3826 327.74 82.5985 327.74 81.7045C327.74 80.8106 327.903 80.0227 328.229 79.3409C328.558 78.6553 329.017 78.1212 329.604 77.7386C330.195 77.3523 330.884 77.1591 331.672 77.1591C332.126 77.1591 332.575 77.2348 333.018 77.3864C333.462 77.5379 333.865 77.7841 334.229 78.125C334.592 78.4621 334.882 78.9091 335.098 79.4659C335.314 80.0227 335.422 80.7083 335.422 81.5227V82.0909H328.695V80.9318H334.058C334.058 80.4394 333.96 80 333.763 79.6136C333.57 79.2273 333.293 78.9223 332.933 78.6989C332.577 78.4754 332.157 78.3636 331.672 78.3636C331.138 78.3636 330.676 78.4962 330.286 78.7614C329.899 79.0227 329.602 79.3636 329.393 79.7841C329.185 80.2045 329.081 80.6553 329.081 81.1364V81.9091C329.081 82.5682 329.195 83.1269 329.422 83.5852C329.653 84.0398 329.973 84.3864 330.382 84.625C330.791 84.8598 331.267 84.9773 331.808 84.9773C332.161 84.9773 332.479 84.928 332.763 84.8295C333.051 84.7273 333.299 84.5758 333.507 84.375C333.715 84.1705 333.876 83.9167 333.99 83.6136L335.286 83.9773C335.149 84.4167 334.92 84.803 334.598 85.1364C334.276 85.4659 333.878 85.7235 333.405 85.9091C332.931 86.0909 332.399 86.1818 331.808 86.1818ZM342.117 86.1818C341.39 86.1818 340.748 85.9981 340.191 85.6307C339.634 85.2595 339.199 84.7367 338.884 84.0625C338.57 83.3845 338.413 82.5833 338.413 81.6591C338.413 80.7424 338.57 79.947 338.884 79.2727C339.199 78.5985 339.636 78.0777 340.197 77.7102C340.757 77.3428 341.405 77.1591 342.14 77.1591C342.708 77.1591 343.157 77.2538 343.486 77.4432C343.82 77.6288 344.074 77.8409 344.248 78.0795C344.426 78.3144 344.564 78.5076 344.663 78.6591H344.776V74.3636H346.117V86H344.822V84.6591H344.663C344.564 84.8182 344.424 85.0189 344.242 85.2614C344.06 85.5 343.801 85.714 343.464 85.9034C343.127 86.089 342.678 86.1818 342.117 86.1818ZM342.299 84.9773C342.837 84.9773 343.291 84.8371 343.663 84.5568C344.034 84.2727 344.316 83.8807 344.509 83.3807C344.702 82.8769 344.799 82.2955 344.799 81.6364C344.799 80.9848 344.704 80.4148 344.515 79.9261C344.325 79.4337 344.045 79.0511 343.674 78.7784C343.303 78.5019 342.844 78.3636 342.299 78.3636C341.731 78.3636 341.257 78.5095 340.878 78.8011C340.503 79.089 340.221 79.4811 340.032 79.9773C339.846 80.4697 339.753 81.0227 339.753 81.6364C339.753 82.2576 339.848 82.822 340.038 83.3295C340.231 83.8333 340.515 84.2348 340.89 84.5341C341.269 84.8295 341.738 84.9773 342.299 84.9773ZM371.385 78H369.976C369.892 77.5947 369.746 77.2386 369.538 76.9318C369.333 76.625 369.083 76.3674 368.788 76.1591C368.496 75.947 368.172 75.7879 367.816 75.6818C367.46 75.5758 367.089 75.5227 366.703 75.5227C365.998 75.5227 365.36 75.7008 364.788 76.0568C364.22 76.4129 363.767 76.9375 363.43 77.6307C363.097 78.3239 362.93 79.1742 362.93 80.1818C362.93 81.1894 363.097 82.0398 363.43 82.733C363.767 83.4261 364.22 83.9508 364.788 84.3068C365.36 84.6629 365.998 84.8409 366.703 84.8409C367.089 84.8409 367.46 84.7879 367.816 84.6818C368.172 84.5758 368.496 84.4186 368.788 84.2102C369.083 83.9981 369.333 83.7386 369.538 83.4318C369.746 83.1212 369.892 82.7652 369.976 82.3636H371.385C371.279 82.9583 371.085 83.4905 370.805 83.9602C370.525 84.4299 370.176 84.8295 369.76 85.1591C369.343 85.4848 368.875 85.733 368.356 85.9034C367.841 86.0739 367.29 86.1591 366.703 86.1591C365.71 86.1591 364.828 85.9167 364.055 85.4318C363.282 84.947 362.674 84.2576 362.231 83.3636C361.788 82.4697 361.566 81.4091 361.566 80.1818C361.566 78.9545 361.788 77.8939 362.231 77C362.674 76.1061 363.282 75.4167 364.055 74.9318C364.828 74.447 365.71 74.2045 366.703 74.2045C367.29 74.2045 367.841 74.2898 368.356 74.4602C368.875 74.6307 369.343 74.8807 369.76 75.2102C370.176 75.536 370.525 75.9337 370.805 76.4034C371.085 76.8693 371.279 77.4015 371.385 78ZM376.181 80.75V86H374.84V74.3636H376.181V78.6364H376.294C376.499 78.1856 376.806 77.8277 377.215 77.5625C377.628 77.2936 378.177 77.1591 378.862 77.1591C379.457 77.1591 379.978 77.2784 380.425 77.517C380.872 77.7519 381.219 78.1136 381.465 78.6023C381.715 79.0871 381.84 79.7045 381.84 80.4545V86H380.499V80.5455C380.499 79.8523 380.319 79.3163 379.959 78.9375C379.603 78.5549 379.109 78.3636 378.476 78.3636C378.037 78.3636 377.643 78.4564 377.294 78.642C376.95 78.8277 376.677 79.0985 376.476 79.4545C376.279 79.8106 376.181 80.2424 376.181 80.75ZM385.653 86V77.2727H386.994V86H385.653ZM386.335 75.8182C386.073 75.8182 385.848 75.7292 385.659 75.5511C385.473 75.3731 385.38 75.1591 385.38 74.9091C385.38 74.6591 385.473 74.4451 385.659 74.267C385.848 74.089 386.073 74 386.335 74C386.596 74 386.82 74.089 387.005 74.267C387.195 74.4451 387.289 74.6591 387.289 74.9091C387.289 75.1591 387.195 75.3731 387.005 75.5511C386.82 75.7292 386.596 75.8182 386.335 75.8182ZM392.151 80.75V86H390.81V77.2727H392.105V78.6364H392.219C392.423 78.1932 392.734 77.8371 393.151 77.5682C393.567 77.2955 394.105 77.1591 394.764 77.1591C395.355 77.1591 395.872 77.2803 396.315 77.5227C396.759 77.7614 397.103 78.125 397.35 78.6136C397.596 79.0985 397.719 79.7121 397.719 80.4545V86H396.378V80.5455C396.378 79.8598 396.2 79.3258 395.844 78.9432C395.488 78.5568 394.999 78.3636 394.378 78.3636C393.95 78.3636 393.567 78.4564 393.23 78.642C392.897 78.8277 392.634 79.0985 392.44 79.4545C392.247 79.8106 392.151 80.2424 392.151 80.75ZM405.188 86.1818C404.347 86.1818 403.622 85.9962 403.012 85.625C402.406 85.25 401.938 84.7273 401.609 84.0568C401.283 83.3826 401.12 82.5985 401.12 81.7045C401.12 80.8106 401.283 80.0227 401.609 79.3409C401.938 78.6553 402.397 78.1212 402.984 77.7386C403.575 77.3523 404.264 77.1591 405.052 77.1591C405.506 77.1591 405.955 77.2348 406.398 77.3864C406.842 77.5379 407.245 77.7841 407.609 78.125C407.972 78.4621 408.262 78.9091 408.478 79.4659C408.694 80.0227 408.802 80.7083 408.802 81.5227V82.0909H402.075V80.9318H407.438C407.438 80.4394 407.34 80 407.143 79.6136C406.95 79.2273 406.673 78.9223 406.313 78.6989C405.957 78.4754 405.537 78.3636 405.052 78.3636C404.518 78.3636 404.056 78.4962 403.666 78.7614C403.279 79.0227 402.982 79.3636 402.773 79.7841C402.565 80.2045 402.461 80.6553 402.461 81.1364V81.9091C402.461 82.5682 402.575 83.1269 402.802 83.5852C403.033 84.0398 403.353 84.3864 403.762 84.625C404.171 84.8598 404.647 84.9773 405.188 84.9773C405.541 84.9773 405.859 84.928 406.143 84.8295C406.431 84.7273 406.679 84.5758 406.887 84.375C407.095 84.1705 407.256 83.9167 407.37 83.6136L408.666 83.9773C408.529 84.4167 408.3 84.803 407.978 85.1364C407.656 85.4659 407.258 85.7235 406.785 85.9091C406.311 86.0909 405.779 86.1818 405.188 86.1818ZM418.383 79.2273L417.179 79.5682C417.103 79.3674 416.991 79.1723 416.844 78.983C416.7 78.7898 416.503 78.6307 416.253 78.5057C416.003 78.3807 415.683 78.3182 415.293 78.3182C414.758 78.3182 414.313 78.4413 413.957 78.6875C413.605 78.9299 413.429 79.2386 413.429 79.6136C413.429 79.947 413.55 80.2102 413.793 80.4034C414.035 80.5966 414.414 80.7576 414.929 80.8864L416.224 81.2045C417.005 81.3939 417.586 81.6837 417.969 82.0739C418.351 82.4602 418.543 82.9583 418.543 83.5682C418.543 84.0682 418.399 84.5152 418.111 84.9091C417.827 85.303 417.429 85.6136 416.918 85.8409C416.406 86.0682 415.811 86.1818 415.133 86.1818C414.243 86.1818 413.507 85.9886 412.923 85.6023C412.34 85.2159 411.971 84.6515 411.815 83.9091L413.088 83.5909C413.209 84.0606 413.438 84.4129 413.776 84.6477C414.116 84.8826 414.561 85 415.111 85C415.736 85 416.232 84.8674 416.599 84.6023C416.971 84.3333 417.156 84.0114 417.156 83.6364C417.156 83.3333 417.05 83.0795 416.838 82.875C416.626 82.6667 416.3 82.5114 415.861 82.4091L414.406 82.0682C413.607 81.8788 413.02 81.5852 412.645 81.1875C412.274 80.786 412.088 80.2841 412.088 79.6818C412.088 79.1894 412.226 78.7538 412.503 78.375C412.783 77.9962 413.164 77.6989 413.645 77.483C414.13 77.267 414.679 77.1591 415.293 77.1591C416.156 77.1591 416.834 77.3485 417.327 77.7273C417.823 78.1061 418.175 78.6061 418.383 79.2273ZM425.58 86.1818C424.739 86.1818 424.014 85.9962 423.404 85.625C422.798 85.25 422.33 84.7273 422.001 84.0568C421.675 83.3826 421.512 82.5985 421.512 81.7045C421.512 80.8106 421.675 80.0227 422.001 79.3409C422.33 78.6553 422.788 78.1212 423.376 77.7386C423.966 77.3523 424.656 77.1591 425.444 77.1591C425.898 77.1591 426.347 77.2348 426.79 77.3864C427.234 77.5379 427.637 77.7841 428.001 78.125C428.364 78.4621 428.654 78.9091 428.87 79.4659C429.086 80.0227 429.194 80.7083 429.194 81.5227V82.0909H422.466V80.9318H427.83C427.83 80.4394 427.732 80 427.535 79.6136C427.341 79.2273 427.065 78.9223 426.705 78.6989C426.349 78.4754 425.929 78.3636 425.444 78.3636C424.91 78.3636 424.448 78.4962 424.057 78.7614C423.671 79.0227 423.374 79.3636 423.165 79.7841C422.957 80.2045 422.853 80.6553 422.853 81.1364V81.9091C422.853 82.5682 422.966 83.1269 423.194 83.5852C423.425 84.0398 423.745 84.3864 424.154 84.625C424.563 84.8598 425.038 84.9773 425.58 84.9773C425.932 84.9773 426.251 84.928 426.535 84.8295C426.823 84.7273 427.071 84.5758 427.279 84.375C427.487 84.1705 427.648 83.9167 427.762 83.6136L429.057 83.9773C428.921 84.4167 428.692 84.803 428.37 85.1364C428.048 85.4659 427.65 85.7235 427.177 85.9091C426.703 86.0909 426.171 86.1818 425.58 86.1818ZM443.859 75.6136V74.3636H452.586V75.6136H448.927V86H447.518V75.6136H443.859ZM455.033 86V77.2727H456.328V78.5909H456.419C456.578 78.1591 456.866 77.8087 457.283 77.5398C457.7 77.2708 458.169 77.1364 458.692 77.1364C458.79 77.1364 458.914 77.1383 459.061 77.142C459.209 77.1458 459.321 77.1515 459.397 77.1591V78.5227C459.351 78.5114 459.247 78.4943 459.084 78.4716C458.925 78.4451 458.756 78.4318 458.578 78.4318C458.154 78.4318 457.775 78.5208 457.442 78.6989C457.112 78.8731 456.851 79.1155 456.658 79.4261C456.469 79.733 456.374 80.0833 456.374 80.4773V86H455.033ZM464.914 86.2045C464.361 86.2045 463.859 86.1004 463.409 85.892C462.958 85.6799 462.6 85.375 462.335 84.9773C462.07 84.5758 461.937 84.0909 461.937 83.5227C461.937 83.0227 462.035 82.6174 462.232 82.3068C462.429 81.9924 462.693 81.7462 463.022 81.5682C463.352 81.3902 463.715 81.2576 464.113 81.1705C464.515 81.0795 464.918 81.0076 465.323 80.9545C465.854 80.8864 466.284 80.8352 466.613 80.8011C466.946 80.7633 467.189 80.7008 467.34 80.6136C467.496 80.5265 467.573 80.375 467.573 80.1591V80.1136C467.573 79.553 467.42 79.1174 467.113 78.8068C466.81 78.4962 466.35 78.3409 465.732 78.3409C465.092 78.3409 464.59 78.4811 464.227 78.7614C463.863 79.0417 463.607 79.3409 463.46 79.6591L462.187 79.2045C462.414 78.6742 462.717 78.2614 463.096 77.9659C463.479 77.6667 463.895 77.4583 464.346 77.3409C464.801 77.2197 465.248 77.1591 465.687 77.1591C465.967 77.1591 466.289 77.1932 466.653 77.2614C467.02 77.3258 467.374 77.4602 467.715 77.6648C468.06 77.8693 468.346 78.178 468.573 78.5909C468.801 79.0038 468.914 79.5568 468.914 80.25V86H467.573V84.8182H467.505C467.414 85.0076 467.263 85.2102 467.051 85.4261C466.838 85.642 466.556 85.8258 466.204 85.9773C465.852 86.1288 465.422 86.2045 464.914 86.2045ZM465.119 85C465.649 85 466.096 84.8958 466.46 84.6875C466.827 84.4792 467.104 84.2102 467.289 83.8807C467.479 83.5511 467.573 83.2045 467.573 82.8409V81.6136C467.516 81.6818 467.391 81.7443 467.198 81.8011C467.009 81.8542 466.789 81.9015 466.539 81.9432C466.293 81.9811 466.052 82.0152 465.818 82.0455C465.587 82.072 465.399 82.0947 465.255 82.1136C464.907 82.1591 464.581 82.233 464.278 82.3352C463.979 82.4337 463.736 82.5833 463.551 82.7841C463.369 82.9811 463.278 83.25 463.278 83.5909C463.278 84.0568 463.45 84.4091 463.795 84.6477C464.143 84.8826 464.585 85 465.119 85ZM474.063 80.75V86H472.722V77.2727H474.017V78.6364H474.131C474.335 78.1932 474.646 77.8371 475.063 77.5682C475.479 77.2955 476.017 77.1591 476.676 77.1591C477.267 77.1591 477.784 77.2803 478.227 77.5227C478.671 77.7614 479.015 78.125 479.261 78.6136C479.508 79.0985 479.631 79.7121 479.631 80.4545V86H478.29V80.5455C478.29 79.8598 478.112 79.3258 477.756 78.9432C477.4 78.5568 476.911 78.3636 476.29 78.3636C475.862 78.3636 475.479 78.4564 475.142 78.642C474.809 78.8277 474.546 79.0985 474.352 79.4545C474.159 79.8106 474.063 80.2424 474.063 80.75ZM489.623 79.2273L488.418 79.5682C488.343 79.3674 488.231 79.1723 488.083 78.983C487.939 78.7898 487.742 78.6307 487.492 78.5057C487.242 78.3807 486.922 78.3182 486.532 78.3182C485.998 78.3182 485.553 78.4413 485.197 78.6875C484.844 78.9299 484.668 79.2386 484.668 79.6136C484.668 79.947 484.79 80.2102 485.032 80.4034C485.274 80.5966 485.653 80.7576 486.168 80.8864L487.464 81.2045C488.244 81.3939 488.825 81.6837 489.208 82.0739C489.591 82.4602 489.782 82.9583 489.782 83.5682C489.782 84.0682 489.638 84.5152 489.35 84.9091C489.066 85.303 488.668 85.6136 488.157 85.8409C487.646 86.0682 487.051 86.1818 486.373 86.1818C485.483 86.1818 484.746 85.9886 484.163 85.6023C483.579 85.2159 483.21 84.6515 483.055 83.9091L484.327 83.5909C484.449 84.0606 484.678 84.4129 485.015 84.6477C485.356 84.8826 485.801 85 486.35 85C486.975 85 487.471 84.8674 487.839 84.6023C488.21 84.3333 488.396 84.0114 488.396 83.6364C488.396 83.3333 488.29 83.0795 488.077 82.875C487.865 82.6667 487.54 82.5114 487.1 82.4091L485.646 82.0682C484.846 81.8788 484.259 81.5852 483.884 81.1875C483.513 80.786 483.327 80.2841 483.327 79.6818C483.327 79.1894 483.466 78.7538 483.742 78.375C484.022 77.9962 484.403 77.6989 484.884 77.483C485.369 77.267 485.918 77.1591 486.532 77.1591C487.396 77.1591 488.074 77.3485 488.566 77.7273C489.062 78.1061 489.415 78.6061 489.623 79.2273ZM494.501 74.3636V86H493.16V74.3636H494.501ZM500.885 86.2045C500.332 86.2045 499.831 86.1004 499.38 85.892C498.929 85.6799 498.571 85.375 498.306 84.9773C498.041 84.5758 497.908 84.0909 497.908 83.5227C497.908 83.0227 498.007 82.6174 498.204 82.3068C498.401 81.9924 498.664 81.7462 498.993 81.5682C499.323 81.3902 499.687 81.2576 500.084 81.1705C500.486 81.0795 500.889 81.0076 501.295 80.9545C501.825 80.8864 502.255 80.8352 502.584 80.8011C502.918 80.7633 503.16 80.7008 503.312 80.6136C503.467 80.5265 503.545 80.375 503.545 80.1591V80.1136C503.545 79.553 503.391 79.1174 503.084 78.8068C502.781 78.4962 502.321 78.3409 501.704 78.3409C501.063 78.3409 500.562 78.4811 500.198 78.7614C499.834 79.0417 499.579 79.3409 499.431 79.6591L498.158 79.2045C498.385 78.6742 498.688 78.2614 499.067 77.9659C499.45 77.6667 499.867 77.4583 500.317 77.3409C500.772 77.2197 501.219 77.1591 501.658 77.1591C501.938 77.1591 502.26 77.1932 502.624 77.2614C502.992 77.3258 503.346 77.4602 503.687 77.6648C504.031 77.8693 504.317 78.178 504.545 78.5909C504.772 79.0038 504.885 79.5568 504.885 80.25V86H503.545V84.8182H503.476C503.385 85.0076 503.234 85.2102 503.022 85.4261C502.81 85.642 502.527 85.8258 502.175 85.9773C501.823 86.1288 501.393 86.2045 500.885 86.2045ZM501.09 85C501.62 85 502.067 84.8958 502.431 84.6875C502.798 84.4792 503.075 84.2102 503.26 83.8807C503.45 83.5511 503.545 83.2045 503.545 82.8409V81.6136C503.488 81.6818 503.363 81.7443 503.17 81.8011C502.98 81.8542 502.76 81.9015 502.51 81.9432C502.264 81.9811 502.024 82.0152 501.789 82.0455C501.558 82.072 501.37 82.0947 501.226 82.1136C500.878 82.1591 500.552 82.233 500.249 82.3352C499.95 82.4337 499.707 82.5833 499.522 82.7841C499.34 82.9811 499.249 83.25 499.249 83.5909C499.249 84.0568 499.421 84.4091 499.766 84.6477C500.115 84.8826 500.556 85 501.09 85ZM512.488 77.2727V78.4091H507.966V77.2727H512.488ZM509.284 75.1818H510.625V83.5C510.625 83.8788 510.68 84.1629 510.79 84.3523C510.903 84.5379 511.047 84.6629 511.221 84.7273C511.399 84.7879 511.587 84.8182 511.784 84.8182C511.932 84.8182 512.053 84.8106 512.147 84.7955C512.242 84.7765 512.318 84.7614 512.375 84.75L512.647 85.9545C512.557 85.9886 512.43 86.0227 512.267 86.0568C512.104 86.0947 511.897 86.1136 511.647 86.1136C511.269 86.1136 510.897 86.0322 510.534 85.8693C510.174 85.7064 509.875 85.4583 509.636 85.125C509.401 84.7917 509.284 84.3712 509.284 83.8636V75.1818ZM515.865 86V77.2727H517.206V86H515.865ZM516.547 75.8182C516.286 75.8182 516.06 75.7292 515.871 75.5511C515.685 75.3731 515.593 75.1591 515.593 74.9091C515.593 74.6591 515.685 74.4451 515.871 74.267C516.06 74.089 516.286 74 516.547 74C516.809 74 517.032 74.089 517.218 74.267C517.407 74.4451 517.502 74.6591 517.502 74.9091C517.502 75.1591 517.407 75.3731 517.218 75.5511C517.032 75.7292 516.809 75.8182 516.547 75.8182ZM524.568 86.1818C523.78 86.1818 523.089 85.9943 522.494 85.6193C521.903 85.2443 521.441 84.7197 521.108 84.0455C520.778 83.3712 520.613 82.5833 520.613 81.6818C520.613 80.7727 520.778 79.9792 521.108 79.3011C521.441 78.6231 521.903 78.0966 522.494 77.7216C523.089 77.3466 523.78 77.1591 524.568 77.1591C525.356 77.1591 526.045 77.3466 526.636 77.7216C527.231 78.0966 527.693 78.6231 528.022 79.3011C528.356 79.9792 528.522 80.7727 528.522 81.6818C528.522 82.5833 528.356 83.3712 528.022 84.0455C527.693 84.7197 527.231 85.2443 526.636 85.6193C526.045 85.9943 525.356 86.1818 524.568 86.1818ZM524.568 84.9773C525.166 84.9773 525.659 84.8239 526.045 84.517C526.431 84.2102 526.717 83.8068 526.903 83.3068C527.089 82.8068 527.181 82.2652 527.181 81.6818C527.181 81.0985 527.089 80.5549 526.903 80.0511C526.717 79.5473 526.431 79.1402 526.045 78.8295C525.659 78.5189 525.166 78.3636 524.568 78.3636C523.969 78.3636 523.477 78.5189 523.09 78.8295C522.704 79.1402 522.418 79.5473 522.233 80.0511C522.047 80.5549 521.954 81.0985 521.954 81.6818C521.954 82.2652 522.047 82.8068 522.233 83.3068C522.418 83.8068 522.704 84.2102 523.09 84.517C523.477 84.8239 523.969 84.9773 524.568 84.9773ZM533.27 80.75V86H531.929V77.2727H533.225V78.6364H533.338C533.543 78.1932 533.853 77.8371 534.27 77.5682C534.687 77.2955 535.225 77.1591 535.884 77.1591C536.475 77.1591 536.992 77.2803 537.435 77.5227C537.878 77.7614 538.223 78.125 538.469 78.6136C538.715 79.0985 538.838 79.7121 538.838 80.4545V86H537.497V80.5455C537.497 79.8598 537.319 79.3258 536.963 78.9432C536.607 78.5568 536.119 78.3636 535.497 78.3636C535.069 78.3636 534.687 78.4564 534.35 78.642C534.016 78.8277 533.753 79.0985 533.56 79.4545C533.367 79.8106 533.27 80.2424 533.27 80.75Z" fill="#686565"/>
<g clip-path="url(#clip0_202_391)">
<path d="M45 85.5C67.3675 85.5 85.5 67.3675 85.5 45C85.5 22.6325 67.3675 4.5 45 4.5C22.6325 4.5 4.5 22.6325 4.5 45C4.5 67.3675 22.6325 85.5 45 85.5Z" fill="white" stroke="#3C790A" stroke-width="10"/>
<path d="M45 22.5V36L31.5 45L22.5 58.5M31.5 45L40.5 58.5L31.5 45ZM45 36L58.5 45L67.5 58.5M58.5 45L49.5 58.5L58.5 45Z" fill="white"/>
<path d="M45 22.5V36L31.5 45L22.5 58.5M31.5 45L40.5 58.5M45 36L58.5 45L67.5 58.5M58.5 45L49.5 58.5" stroke="#3C790A" stroke-width="10"/>
</g>
<defs>
<filter id="filter0_d_202_391" x="113.35" y="11.9275" width="429.11" height="47.6184" filterUnits="userSpaceOnUse" color-interpolation-filters="sRGB">
<feFlood flood-opacity="0" result="BackgroundImageFix"/>
<feColorMatrix in="SourceAlpha" type="matrix" values="0 0 0 0 0 0 0 0 0 0 0 0 0 0 0 0 0 0 127 0" result="hardAlpha"/>
<feOffset dy="4"/>
<feGaussianBlur stdDeviation="2"/>
<feComposite in2="hardAlpha" operator="out"/>
<feColorMatrix type="matrix" values="0 0 0 0 0 0 0 0 0 0 0 0 0 0 0 0 0 0 0.25 0"/>
<feBlend mode="normal" in2="BackgroundImageFix" result="effect1_dropShadow_202_391"/>
<feBlend mode="normal" in="SourceGraphic" in2="effect1_dropShadow_202_391" result="shape"/>
</filter>
<clipPath id="clip0_202_391">
<rect width="90" height="90" fill="white"/>
</clipPath>
</defs>
</svg>
